/* XPM */
static char * ebackright_xpm[] = {
"64 64 594 2",
"  	c #1F1E24",
". 	c #4A4759",
"+ 	c #4F4C5D",
"@ 	c #4F4C5C",
"# 	c #4D4B58",
"$ 	c #4D4A58",
"% 	c #4C4A57",
"& 	c #4B4956",
"* 	c #4A4855",
"= 	c #4A4854",
"- 	c #494754",
"; 	c #494753",
"> 	c #484652",
", 	c #474551",
"' 	c #464550",
") 	c #46444F",
"! 	c #43414C",
"~ 	c #2E2D37",
"{ 	c #131313",
"] 	c #33323C",
"^ 	c #42404B",
"/ 	c #42404C",
"( 	c #413F4A",
"_ 	c #403F4A",
": 	c #3F3E49",
"< 	c #3B3943",
"[ 	c #2E2D36",
"} 	c #17171C",
"| 	c #222026",
"1 	c #4C495C",
"2 	c #43414E",
"3 	c #383641",
"4 	c #302E39",
"5 	c #17161B",
"6 	c #0F0F14",
"7 	c #09080C",
"8 	c #030303",
"9 	c #1D1C22",
"0 	c #454352",
"a 	c #4D4A5A",
"b 	c #4D4B59",
"c 	c #4C4A58",
"d 	c #060606",
"e 	c #1C1C1D",
"f 	c #252429",
"g 	c #34323D",
"h 	c #3F3D49",
"i 	c #474554",
"j 	c #4A4857",
"k 	c #4B4858",
"l 	c #4C4959",
"m 	c #1E1D22",
"n 	c #1F1E23",
"o 	c #403E4A",
"p 	c #3C3A44",
"q 	c #33313B",
"r 	c #22212A",
"s 	c #0C0C0C",
"t 	c #1D1D1D",
"u 	c #1D1C1E",
"v 	c #18171A",
"w 	c #171719",
"x 	c #19181D",
"y 	c #18171C",
"z 	c #18181D",
"A 	c #18171E",
"B 	c #0B0B0E",
"C 	c #090909",
"D 	c #1D1C1F",
"E 	c #413E4C",
"F 	c #4E4C5A",
"G 	c #26252E",
"H 	c #1F1F25",
"I 	c #171619",
"J 	c #151416",
"K 	c #171717",
"L 	c #1B1B1F",
"M 	c #222128",
"N 	c #464453",
"O 	c #494756",
"P 	c #4D4A59",
"Q 	c #1D1D1E",
"R 	c #3D3B48",
"S 	c #484654",
"T 	c #464451",
"U 	c #43424D",
"V 	c #3D3C46",
"W 	c #37363F",
"X 	c #282730",
"Y 	c #0F0F0F",
"Z 	c #2C2B35",
"` 	c #36353E",
" .	c #323139",
"..	c #302F38",
"+.	c #2F2E37",
"@.	c #2C2B33",
"#.	c #29282F",
"$.	c #212027",
"%.	c #131218",
"&.	c #141315",
"*.	c #34333D",
"=.	c #4A4858",
"-.	c #504D5D",
";.	c #393742",
">.	c #3A3943",
",.	c #34323C",
"'.	c #212029",
").	c #18171D",
"!.	c #131317",
"~.	c #131215",
"{.	c #161616",
"].	c #181719",
"^.	c #2E2C37",
"/.	c #3D3B46",
"(.	c #4B4857",
"_.	c #474553",
":.	c #2C2B32",
"<.	c #2B2A30",
"[.	c #4B4859",
"}.	c #4E4C5C",
"|.	c #43414D",
"1.	c #41404B",
"2.	c #3E3D47",
"3.	c #2C2B34",
"4.	c #393843",
"5.	c #3E3D48",
"6.	c #393841",
"7.	c #383740",
"8.	c #36353D",
"9.	c #34333B",
"0.	c #2F2E36",
"a.	c #27262E",
"b.	c #1A191F",
"c.	c #0C0C0E",
"d.	c #0D0D0D",
"e.	c #27262D",
"f.	c #494656",
"g.	c #4F4C5B",
"h.	c #0E0E0E",
"i.	c #3C3B47",
"j.	c #3E3C47",
"k.	c #2B2A33",
"l.	c #282731",
"m.	c #23222B",
"n.	c #1D1C24",
"o.	c #16151B",
"p.	c #131314",
"q.	c #181818",
"r.	c #1C1B20",
"s.	c #232229",
"t.	c #35333D",
"u.	c #403E4D",
"v.	c #1E1D1F",
"w.	c #3F3C4C",
"x.	c #4F4B5F",
"y.	c #504D5F",
"z.	c #4D4B5A",
"A.	c #4A4856",
"B.	c #44434F",
"C.	c #3F3E48",
"D.	c #3D3B45",
"E.	c #312F39",
"F.	c #151515",
"G.	c #3C3A46",
"H.	c #413F4B",
"I.	c #3C3B45",
"J.	c #3A3842",
"K.	c #35343D",
"L.	c #2E2D35",
"M.	c #24232C",
"N.	c #111115",
"O.	c #0B0B0B",
"P.	c #1C1B1D",
"Q.	c #42404E",
"R.	c #4C4A5A",
"S.	c #101010",
"T.	c #3F3D4A",
"U.	c #43424E",
"V.	c #3B3A44",
"W.	c #393842",
"X.	c #383640",
"Y.	c #35343E",
"Z.	c #2D2C35",
"`.	c #2A2932",
" +	c #25242C",
".+	c #131216",
"++	c #111113",
"@+	c #232226",
"#+	c #494657",
"$+	c #484653",
"%+	c #31303A",
"&+	c #3E3C49",
"*+	c #3B3A43",
"=+	c #28272F",
"-+	c #19181F",
";+	c #141414",
">+	c #2D2B36",
",+	c #403E4C",
"'+	c #454350",
")+	c #383741",
"!+	c #373640",
"~+	c #292831",
"{+	c #201F27",
"]+	c #15141A",
"^+	c #08070A",
"/+	c #0A0A0D",
"(+	c #1B1A21",
"_+	c #18181A",
":+	c #201F22",
"<+	c #383642",
"[+	c #171718",
"}+	c #3C3B48",
"|+	c #222129",
"1+	c #0E0E10",
"2+	c #0A0A0A",
"3+	c #111111",
"4+	c #3C3A45",
"5+	c #100F14",
"6+	c #111114",
"7+	c #1D1C23",
"8+	c #151517",
"9+	c #1C1C1F",
"0+	c #363440",
"a+	c #32313B",
"b+	c #161518",
"c+	c #413F4C",
"d+	c #25242D",
"e+	c #151419",
"f+	c #16151A",
"g+	c #151418",
"h+	c #32313A",
"i+	c #19181E",
"j+	c #141415",
"k+	c #141316",
"l+	c #403E4B",
"m+	c #060506",
"n+	c #17161A",
"o+	c #26252D",
"p+	c #35343C",
"q+	c #0A0909",
"r+	c #0A090A",
"s+	c #0E0C0D",
"t+	c #0D0B0C",
"u+	c #3D3C47",
"v+	c #403F49",
"w+	c #0B090B",
"x+	c #100E0F",
"y+	c #0C0A0B",
"z+	c #131012",
"A+	c #151417",
"B+	c #171416",
"C+	c #37353F",
"D+	c #201F26",
"E+	c #181517",
"F+	c #110F10",
"G+	c #110E10",
"H+	c #120F11",
"I+	c #373541",
"J+	c #19191C",
"K+	c #413F4D",
"L+	c #090809",
"M+	c #151214",
"N+	c #0F0D0E",
"O+	c #050405",
"P+	c #464450",
"Q+	c #18181B",
"R+	c #121212",
"S+	c #454251",
"T+	c #494755",
"U+	c #070607",
"V+	c #141113",
"W+	c #080708",
"X+	c #171316",
"Y+	c #1D1D1F",
"Z+	c #393743",
"`+	c #444251",
" @	c #474453",
".@	c #42404D",
"+@	c #25242B",
"@@	c #403E49",
"#@	c #474555",
"$@	c #4C4958",
"%@	c #474552",
"&@	c #040304",
"*@	c #020202",
"=@	c #161315",
"-@	c #373540",
";@	c #3E3B4A",
">@	c #25232C",
",@	c #19191D",
"'@	c #3F3E4B",
")@	c #454254",
"!@	c #4A4758",
"~@	c #4A4757",
"{@	c #42414C",
"]@	c #1B1719",
"^@	c #121117",
"/@	c #19181C",
"(@	c #26252C",
"_@	c #050505",
":@	c #161517",
"<@	c #201F24",
"[@	c #444151",
"}@	c #464352",
"|@	c #0B090A",
"1@	c #171315",
"2@	c #1B1619",
"3@	c #33323B",
"4@	c #17161C",
"5@	c #0A0A0C",
"6@	c #3A3945",
"7@	c #131217",
"8@	c #0D0D0F",
"9@	c #0F0F10",
"0@	c #2D2B35",
"a@	c #3D3B49",
"b@	c #474454",
"c@	c #4B4958",
"d@	c #4C4A59",
"e@	c #1E191C",
"f@	c #181416",
"g@	c #33313C",
"h@	c #3D3C45",
"i@	c #3B3A46",
"j@	c #1D1C21",
"k@	c #1E1D24",
"l@	c #2A2931",
"m@	c #292830",
"n@	c #111014",
"o@	c #101012",
"p@	c #151516",
"q@	c #43404F",
"r@	c #484557",
"s@	c #3A3843",
"t@	c #2D2C36",
"u@	c #1D181B",
"v@	c #191517",
"w@	c #3B3947",
"x@	c #1B1A1E",
"y@	c #3C3B46",
"z@	c #393741",
"A@	c #1C1B22",
"B@	c #141318",
"C@	c #121214",
"D@	c #121215",
"E@	c #1A1618",
"F@	c #1C171A",
"G@	c #3C3A47",
"H@	c #302E38",
"I@	c #121112",
"J@	c #27262F",
"K@	c #44434E",
"L@	c #3F3D48",
"M@	c #34333C",
"N@	c #26252F",
"O@	c #111015",
"P@	c #0F0F11",
"Q@	c #1C181A",
"R@	c #1F1A1D",
"S@	c #121216",
"T@	c #14131A",
"U@	c #0E0E0F",
"V@	c #312F3A",
"W@	c #454351",
"X@	c #474652",
"Y@	c #313039",
"Z@	c #121114",
"`@	c #1F1E25",
" #	c #36353F",
".#	c #1B1B1C",
"+#	c #33323D",
"@#	c #242327",
"##	c #434150",
"$#	c #211B1F",
"%#	c #161618",
"&#	c #241E22",
"*#	c #3C3B44",
"=#	c #373641",
"-#	c #100D0F",
";#	c #251F22",
">#	c #1C1B21",
",#	c #1A191E",
"'#	c #3A3944",
")#	c #0B0A0B",
"!#	c #161214",
"~#	c #1E191B",
"{#	c #201A1D",
"]#	c #161617",
"^#	c #090808",
"/#	c #0A0809",
"(#	c #231D20",
"_#	c #181417",
":#	c #34333E",
"<#	c #2E2C36",
"[#	c #211B1E",
"}#	c #151114",
"|#	c #1F191C",
"1#	c #44424E",
"2#	c #3B3944",
"3#	c #1E1D23",
"4#	c #161215",
"5#	c #151113",
"6#	c #221C1F",
"7#	c #45434F",
"8#	c #383742",
"9#	c #241E21",
"0#	c #484555",
"a#	c #42414D",
"b#	c #1A1A1D",
"c#	c #1D1D21",
"d#	c #302F39",
"e#	c #464353",
"f#	c #1E1E21",
"g#	c #2C2A33",
"h#	c #41404D",
"i#	c #41404C",
"j#	c #231C20",
"k#	c #1A1A1C",
"l#	c #28272E",
"m#	c #34323F",
"n#	c #1A1A1A",
"o#	c #464351",
"p#	c #241D21",
"q#	c #141112",
"r#	c #18181E",
"s#	c #464452",
"t#	c #261F22",
"u#	c #281F24",
"v#	c #3B3A45",
"w#	c #36343E",
"x#	c #24232B",
"y#	c #17161D",
"z#	c #27252D",
"A#	c #43414F",
"B#	c #231C1F",
"C#	c #1A1518",
"D#	c #2A2126",
"E#	c #161619",
"F#	c #0E0E11",
"G#	c #444250",
"H#	c #241D20",
"I#	c #17171A",
"J#	c #0F0F12",
"K#	c #1F1E26",
"L#	c #393744",
"M#	c #44424F",
"N#	c #1D181A",
"O#	c #251E21",
"P#	c #282024",
"Q#	c #111112",
"R#	c #3A3942",
"S#	c #484554",
"T#	c #2A2933",
"U#	c #3E3D49",
"V#	c #35333E",
"W#	c #251E22",
"X#	c #261E22",
"Y#	c #292125",
"Z#	c #242329",
"`#	c #413F4E",
" $	c #3E3C4A",
".$	c #171618",
"+$	c #131213",
"@$	c #271F24",
"#$	c #2A2226",
"$$	c #2B2227",
"%$	c #2C2A34",
"&$	c #18181C",
"*$	c #17171B",
"=$	c #33313E",
"-$	c #131315",
";$	c #1A1920",
">$	c #23232B",
",$	c #272024",
"'$	c #2D2428",
")$	c #2E252A",
"!$	c #1F191D",
"~$	c #261E23",
"{$	c #191919",
"]$	c #070707",
"^$	c #2B2B33",
"/$	c #302F37",
"($	c #2D2328",
"_$	c #31272C",
":$	c #32272D",
"<$	c #2F252A",
"[$	c #2C2327",
"}$	c #271F23",
"|$	c #282025",
"1$	c #261F23",
"2$	c #141416",
"3$	c #1A1A1B",
"4$	c #0F0F13",
"5$	c #313038",
"6$	c #33323A",
"7$	c #201A1E",
"8$	c #31262C",
"9$	c #35292F",
"0$	c #372B31",
"a$	c #3A2D33",
"b$	c #3B2D34",
"c$	c #2E242A",
"d$	c #2C2328",
"e$	c #16161A",
"f$	c #202021",
"g$	c #3E3C48",
"h$	c #1F1F26",
"i$	c #36363E",
"j$	c #33282D",
"k$	c #3B2E34",
"l$	c #3E3036",
"m$	c #42323A",
"n$	c #272023",
"o$	c #30262A",
"p$	c #362A30",
"q$	c #2F252B",
"r$	c #2D2429",
"s$	c #221C20",
"t$	c #2B2932",
"u$	c #171617",
"v$	c #27252F",
"w$	c #3F3D4C",
"x$	c #100F11",
"y$	c #1B1B20",
"z$	c #3D3B47",
"A$	c #3A2E33",
"B$	c #382C32",
"C$	c #352A2F",
"D$	c #30262C",
"E$	c #1B1A20",
"F$	c #1E1E23",
"G$	c #0D0C0E",
"H$	c #101013",
"I$	c #42404F",
"J$	c #23222A",
"K$	c #2C2C34",
"L$	c #392D32",
"M$	c #372B30",
"N$	c #30262B",
"O$	c #1A1A21",
"P$	c #0E0D11",
"Q$	c #080809",
"R$	c #3F3D4B",
"S$	c #141419",
"T$	c #0B0B0D",
"U$	c #1A191C",
"V$	c #3B3945",
"W$	c #222028",
"X$	c #151519",
"Y$	c #212026",
"Z$	c #1F1F24",
"`$	c #2F2D37",
" %	c #1C1C23",
".%	c #1B1A1F",
"+%	c #3A3845",
"@%	c #1E1E25",
"#%	c #1E1D25",
"$%	c #1A191D",
"%%	c #35343F",
"&%	c #222229",
"*%	c #3E3C4C",
"=%	c #454252",
"-%	c #1D1C20",
";%	c #111017",
">%	c #2D2D34",
",%	c #0F0E10",
"'%	c #121115",
")%	c #16161B",
"!%	c #15151B",
"~%	c #101015",
"{%	c #474455",
"]%	c #24242B",
"^%	c #19191F",
"/%	c #212128",
"(%	c #1C1C22",
"_%	c #1D1D23",
":%	c #202026",
"<%	c #212127",
"[%	c #24232A",
"}%	c #101011",
"|%	c #484655",
"1%	c #2D2C34",
"2%	c #2B2A32",
"3%	c #302F36",
"4%	c #292930",
"5%	c #28282F",
"6%	c #2A2A31",
"7%	c #2B2A31",
"8%	c #2B2B32",
"9%	c #313037",
"0%	c #2F2E35",
"a%	c #2E2D34",
"b%	c #2E2E35",
"c%	c #1C1B1F",
"  . + @ @ # $ % % & * = - ; > > , ' ) ! ~ { ] ^ / ^ ( _ _ _ _ _ _ _ _ _ _ _ _ _ _ _ : < [ } | 1 2 3 4 5 6 7 8 8 9 0 a b c & - > ",
"d e f g h i j k l c $ c % & * * = ; > / m n o ! ^ ( _ _ _ _ _ _ _ _ _ _ _ _ _ _ _ _ : p q r s t u v w x y z A B C D E l F b % * ",
"d G H I J K L M q N O j l P # $ % & - o Q R S T U ^ _ _ _ _ _ _ _ _ _ _ _ _ _ _ _ _ : V W X Y Z `  .....+.@.#.$.%.C &.*.=.-.F $ ",
"s ;.>.,.X '.).!.~.{.].m ^./.i j j (._.:.<.[.}.(.T |./ 1._ _ _ _ _ _ _ _ _ _ _ _ _ _ _ 2.>.3.{ 4.5.p 6.7.W 8.9.0.a.b.c.d.e.f.@ g.",
"h.i.( j.>.] [ k.l.m.n.o.~.p.q.r.s.t.u.v.w.x.y.z.A.T B.|./ 1._ _ _ _ _ _ _ _ _ _ _ _ _ C.D.E.F.G.H.j.I.< < < J.7.K.L.M.N.O.P.Q.R.",
"S.T.U.H.2.V.W.X.Y.] ..Z.`. +'.)..+++S.d S.@+T.#+k - $+T B.|./ 1._ _ _ _ _ _ _ _ _ _ _ C.D.%+{.&+2 ( 2.I.I.I.I.*+W.W  .=+-+s ;+>+",
"S.,+'+|._ C.2.V /.p J.)+!+K.] ..~+{+]+^+/+(+_+:+<+0 f.- $+T B.|./ 1._ _ _ _ _ _ _ _ _ : D.%+[+}+2 H.C.V I.I.I.I.V.< 7.9.3.|+1+2+",
"3+,+'+|.1.: : : : 5.5.j./.4+V.>.W [ |+5+6+%+[ 7+8+9+0+0 f.- $+T B.|./ 1._ _ _ _ _ _ _ : /.a+b+E.c+1.C.D.I.I.I.I.I.I.< 6.` ..d+e+",
"S.,+'+|.1.: : : : : : : : 5.2.2.I.)+[ f+g+4.< h+a.i+j+9+0+0 f.- $+T B.|./ 1._ _ _ _ _ : /.a+k+=+l+1.C.V I.I.I.I.I.I.I.V.J.` h+@.",
"S.,+'+|.1.: : : : : : : : : : : 5.4+m+m+n+G.5.< K.@. +i+&.9+0+0 f.- $+T B.|./ 1._ _ _ C./.q k+o+l+1.C.V I.I.I.I.I.I.I.I.I.< 7.p+",
"S.,+'+|.1.: : : : : : : : : : : : q+r+s+t+q+_ u+>.`  .@. +i+j+9+0+0 f.- $+T B.|./ 1._ v+V q k+o+l+1.C.V I.I.I.I.I.I.I.I.I.I.< 6.",
"S.,+'+|.1.: : : : : : : : : : : C.w+x+y+s+z+r+t+V < 7.K. .@. +i+j+9+0+0 f.- $+T B.|./ _ j.g A+d+l+1.: V I.I.I.I.I.I.I.I.I.I.I.I.",
"S.,+'+|.1.: : : : : : : : : : : C.B+s+y+t+s+s+y+y+V I.< 7.K. .@. +i+j+9+0+0 f.- $+T B.|.C.C+z D+T.^ : V I.I.I.I.I.I.I.I.I.I.I.I.",
"S.,+'+|.1.: : : : : : : : : : : y+E+t+t+t+y+y+t+r+r+V V I.< 7.K.z+F+x+G+H+9+I+0 f.- $+T ! 4+9 J+T./ : V I.I.I.I.I.I.I.I.I.I.I.I.",
"3+K+T |.1._ : : : : : : : : : : L+M+s+t+y+t+y+y+N+O+r+V V V z+G+s+y+w+w+t+N+H+9+I+0 f.- P+: $.Q+T./ : V I.I.I.I.I.I.I.I.I.I.D.V ",
"R+S+T+T U./ ( ( : : : : : : : : r+z+s+t+y+N+t+y+t+N+U+N+M+V+N+w+W+U+m+U+L+w+s+z+X+Y+Z+`+ @.@+@J+T./ @@j.I.I.I.I.I.I.I.I.I.V V j.",
";+#@$@T+%@B.U.|./ 1.( ( _ _ _ : q+x+y+t+t+N+s+y+y+s+s+G+M+x+w+m+&@*@8 &@m+L+y+G+=@i+j+Y+-@;@>@,@'@|.o j.I.I.I.I.I.I.I.I.V V /.I.",
"3+)@!@~@S %@%@T '+B.U.|.|.|.{@^ r+x+y+y+t+t+y+y+t+t+N+x+G+y+L+O+8 &@m+m+m+L+y+x+=@]@o+b.j+8+^@/@l+U.( 2.I.I.I.I.I.I.V V 2.2.4.(@",
"_@:@<@a+T.[@}@ @%@%@%@_.$+_._.T |@z+t+t+N+t+y+t+s+t+t+t+y+y+|@r+r+r+|@|@q+|@t+H+1@2@3@Z.o+4@5@m c+|._ j.I.I.I.I.V V C.@@o 6@|+d.",
"7@5+8@9@{ j+L 0@a@[@b@~@c@d@O i s+z+t+t+=@G+s+s+x+t+y+t+y+|@r+r+r+r+|@y+y+y+t+N+1@e@f@=@3@a.p.g@o 1.: V h@V V j.C.@@1.H.i@j@3+k@",
"l@m@=+a.M.).n@o@{ p@m g@q@r@s@t@G+G+z+t+x+z+N+x+t+w+t+y+t+L+L+w+|@|@y+y+t+t+y+y+G+u@v@M+z+x+G+s+r+L+r+w+t+H+: @@( o '@w@x@S.=+y@",
"!+!+z@6.C+h++.3.d+A@B@C@R+{ R+D@X+H+V+t+s+t+y+|@r+r+|@y+y+|@|@|@y+y+y+y+y+t+t+t+t+V+H+G+G+x+s+t+s+H+V+E@F@v@V+=@G@H@9 I@2+J@H.K@",
"C.2.L@j./.p V.>.7.M@+.N@O@P@G @.Q@1@V+N+s+|@W+U+W+r+|@y+y+y+y+y+y+y+y+y+y+y+y+y+t+t+t+t+N+x+G+x+x+G+G+H+=@u@R@e@2@z+S@T@U@V@W@X@",
"1.1.1._ _ v+C.2.V V.W.Y@Z@`@ #7.E@X+z+N+s+y+L+U+L+r+y+y+y+y+y+y+y+y+y+y+y+y+y+y+t+s+N+x+H+H+H+H+H+H+H+H+z+E@e@e@u@z+a. +-+.#K+T+",
"1.1.1.1.1.1.1._ _ C.4+V@F.+#V.>.f@V+x+t+N+|@L+L+r+r+|@y+y+y+y+y+y+y+y+y+y+y+y+y+s+s+N+G+H+H+z+H+H+H+H+z+f@u@e@R@E@f@M@..=+z @###",
"1.1.1.1.1.1.1.1.1.v+V.  x@4./.E@X+H+G+N+y+|@L+r+|@|@|@y+y+y+y+y+y+y+y+y+y+y+|@|@y+t+y+x+H+H+z+H+H+V+f@F@e@e@e@$#z+W.J.W 3@=+%#`.",
"1.1.1.1.1.1.1.1.1.@@;.%#~+y@V v@M+H+x+s+y+y+q+|@y+y+y+y+y+y+y+y+y+y+y+y+y+y+y+y+|@|@t+N+H+H+H+z+=@2@e@e@e@e@&#G+< *#V.>.7.h+$.Y ",
"1.1.1.1.1.1.1.1._ 2.t@p@=#u+I.f@z+x+t+y+|@|@r+|@r+q+|@|@y+y+y+y+y+y+y+y+y+y+y+y+y+s+-#H+z+z+X+E@u@e@e@e@e@;#x+2@V V V V >.W L.>#",
"1.1.1.1.1.1.1.1.v+V.9 ,#'#u+Q@X+M+G+t+y+)#w+r+q+r+L+r+r+y+|@|@y+y+y+|@|@y+y+y+t+s+N+G+H+V+=@F@e@e@e@e@e@e@V+2@V V V V V I.J.8.[ ",
"1.1.1.1.1.1.1.( @@3 8+X y@/.2@!#V+H+x+N+y+w+L+q+r+q+L+L+|@q+r+|@|@y+y+|@y+t+t+s+N+H+V+=@f@Q@R@R@e@e@e@e@v@F@V V V V V V V *#)+M@",
"1.1.1.1.1.1.1._ 2.Z p@-@u+I.2@1@z+z+F+x+s+y+|@|@q+q+L+L+L+r+L+q+q+|@|@q+q+y+t+N+x+G+z+M+!#v@u@e@e@e@u@v@~#V V V V V V V V V *+7.",
"1.1.1.1.1.1.1.v+V.9 x@'#u+R@2@f@=@M+z+F+x+t+|@q+q+q+q+q+r+r+r+q+r+r+|@q+q+|@|@t+-#H+V+=@f@E@u@e@e@e@2@{#V V V V V V V V V V I.V.",
"1.1.1.1.1.1.( C. #]#0@y@/.R@F@v@v@=@V+F+N+t+y+q+q+q+L+^#r+L+L+L+L+L+r+L+L+/#y+s+G+V+M+!#!#f@2@u@2@R@(#V V V V V V V V V V V V I.",
"1.1.1.1.1.1._ u+o+8+=#j.I.R@u@f@_#M+H+s+t+N+t+|@q+q+L+q+q+q+|@q+r+q+^#L+/#|@s+N+H+M+1@1@v@E@F@u@u@{#V V V V V V V V V V V V V V ",
"1.1.1.1.1.1.v+>./@9 '#u+I.u@u@f@M+H+N+x+G+-#N+|@/#/#|@|@|@/#y+q+/#|@q+q+|@t+s+-#z+!#1@f@E@2@F@u@u@{#V V V V V V V V V V V V V V ",
"1.1.1.1.1._ C.:#p@<#w+L+s+=@F@E@V+H+H+H+z+G+N+s+|@|@y+|@y+|@y+y+y+y+y+|@s+-#-#x+z+M+f@v@E@F@u@u@e@[#V V V V V V V V V V V V V V ",
"U |.{@1.1._ u+o+8+=#N+W+s+F+v@X+V+M+=@!#M+H+G+N+t+t+t+y+t+y+t+s+y+t+s+t+N+-#H+H+H+}#1@E@E@F@u@u@|#[#V V V V V V V V V V V V V V ",
"T '+1#U ^ _ 2#,@3#'#4#s+x+X+F@f@!#1@1@f@!#V+G+G+N+N+s+y+N+s+N+N+t+s+N+G+x+-#z+V+5#M+1@E@2@u@e@e@{#6#V V V V V V V V V V V V V V ",
"- $+%@T 7#/ 8#[+4 u+/.}#M+f@u@e@2@E@2@v@!#V+z+G+-#-#s+t+-#-#-#G+-#N+N+H+H+N+-#V+!#f@f@E@E@u@~#R@[#9#V V V V V V V V V V V V V V ",
"b@0#T+- %@a#=+b#i.o V I.2@E@2@u@e@u@F@v@5#V+z+H+-#G+s+N+H+G+H+H+H+-#G+z+z+H+H+z+1@E@2@E@2@u@~#{#6#V V V V V V V V V V V V V V V ",
"c#d###e#i ##f#g#h#i#j.V.*+[#e@u@~#e@u@f@!#M+z+z+G+H+-#G+z+H+z+z+H+G+z+z+V+V+z+V+4#v@F@F@F@u@~#6#j#V V V V V V V V V V V V V V V ",
"o.k+{.k#l#m#n#u.o#/ 5.*#*+*+p#[#~#~#u@v@1@5#M+V+H+V+H+z+q#z+V+V+z+G+V+V+=@=@V+!#v@v@F@u@e@e@R@(#j#V V V V V V V V V V V V V V I.",
"+.k.M.r#6+h.Y u.s#|.: I.*+*+*+p#6#{#e@2@v@f@1@!#q#5#V+5#!#V+5#5#z+z+}#!#X+f@M+1@E@2@2@R@|#R@|#[#j#t#u#V V V V V V V V V V V v#,.",
"*+6.w#Z.x#y#2+z#A#U.o /.*#*+*+B#p#6#{#e@F@C#v@1@1@f@!#!#1@!#!#1@V+}#!#1@v@v@X+f@2@u@e@R@[#{#6#j#p#p#t#D#V V V V V V V V V I.:#E#",
"L@V I.J.h+d+F#A+,+G#1.j.I.*#V.I.H#B#6#{#|#u@F@C#E@2@f@f@f@1@f@f@!#!#1@v@2@2@v@v@2@F@u@~#{#[#6#6#j#p#u#V V V V V V V V V I.Y.I#J#",
"( @@C.j.>.%+K#S.L#M#a#: 2.I.u+j.5.B#B#6#[#{#|#u@u@N#C#C#E@f@v@E@f@v@E@u@e@F@2@F@F@u@e@~#6#j#O#P#u#i#@@5.2.V V V V V V I.-@I#Q#l.",
"( ( ( @@u+R#~ 6+  Q.'+/ o : : h i.6@H#p#j#6#6#[#|#|#u@u@F@F@2@2@u@u@e@e@e@e@u@u@e@e@e@e@{#H#<#Q.S#7#a#( L@2.V V V V V ;.$.;+T#>.",
"( ( ( ( C.I.` 3#]#K+i '+|.U#i@V#W#X#Y#X#H#p#j#j#6#[#[#{#|#|#|#R@e@e@e@R@{#R@e@e@e@e@e@e@{#o+v Z#`# @'+2 1.C.2.V V V s@M {.T#>.V ",
"( ( ( ( @@j.>.Z J I+e#`+ $~+.$+$W#@$#$$$X#O#H#p#B#B#j#6#6#6#6#6#{#{#{#[#{#e@e@e@e@e@e@r.G.>.%$&$Y+i@G#T 1#i#@@C.V '#J@K T#>.V V ",
"( ( ( ( ( L@V.a+B@*$=$s.K -$;$>$e@p#,$'$)$Y#X#O#H#H#H#H#p#B#B#B#B#B#6#{#e@e@e@e@e@!$@$,$~$: >.k.b.K Z.Q.S#'+|.H.u+t@{$T#>.V V u+",
"( ( ( ( ( C.I.t.7@]$++*$x#=+^$/$ .=@R@($_$:$<$[$}$O#O#O#O#H#H#H#H#O#H#{#R@e@~#6#W##$|$W#1$2 2.z@3.A@2$Z#`#_.T .@:#3$l@2#V V u+2.",
"( ( ( ( ( @@V ] U@4$d+@.5$ .6$9.p+K.` 7$8$9$0$a$b$9$P#X#X#X#X#X#X#X#X#X#t#O#c$#$d$$$1$j#p#M#1.I.` [ M.e$Y+G@`+ $f$l@g$1._ : C.2.",
"( ( ( ( v+@@4+ +s h$h+M@p+p+K.` i$W W W @$j$k$l$m$i@H.@@L@n$}$n$n$#$o$j$p$0$_$q$r$#$s$7$t$Q.a#h V.C+Y@X ).u$v$L d+w$G#7#2 a#1._ ",
"( ( ( ( @@C.;.C@x$..` ` ` ` W W W W W W i$K.a$*$y$z$( : L@u+u+u+u+u+A$a$B$C$_$D$$$7$E@E$F$K+2 _ 2.*+7.3@a.4@G$d H$V#I$N %@'+B.|.",
"( ( ( _ @@j.t@h.J$W 7.7.W W W W W W W W ` K.K$-$=+h _ : 2.u+u+u+u+u+u+L$M$C$N$#$[#V. # +x@,+U.1.5.I.V.6.5$o+O$P$Q$s Q+I+I$N _.T ",
"1.1.1.1.( v#x Y a+6.7.7.W W W W W W W W ` p+~+F.6@H.( C.5.u+u+u+5.5.5.5.5.L@5.5.L@V R#t@q.R$'+{@: V I.V.7.+.l#M k@S$T$h.E#l@`#0 ",
"U.U.U.U H.*.Y E$W W.7.W W W W W W W W i$K.5$7+I U#a#1._ _ @@@@o o _ _ _ ( H.H.H.H._ u+ #U$V$o#2 o V I.I.v#z@M@..[ @.G i+F#O.j+W$",
"T T T P+i#M Q#:#'#6.7.W W W W W W W W i$9.@.X$Y$K+'+U.|.a#a#a#a#|.|.|.2 2 2 2 U.U.2 H.I.Z$`$N T / L@I.I.I.v#V.R#6.W K.+.m@ %J#C ",
"####A#Q.a@j+.%V$I.W.7.W W W W W W W W K. .a.j+-@s#_.'+.@.@.@.@A#G#A#Q.Q.Q.Q.Q.Q.Q.K+T.+%@%Z#b@S M#@@V I.I.I.I.I.v#V.W.!+K...~+#%",
"x@$%F.;+Y s %%g$V J.7.W W W W W W W W M@/$&%;+*%=%I$G@..g#k.3.3.3.~+-%x x x $%$%x J R+Y C .%#+j T H.V I.I.I.I.I.I.I.v#V.J.!+K. .",
"S@!.r#y#;%Y i.H.V J.7.W W W W W W W W p+>%5 ]$;+q.{.+$x$,%,%,%,%x$x$n@n@n@'%'%'%.+)%).!%~%{.{%c@T 1.2.I.I.I.I.I.I.I.I.I.I.V.J.7.",
"+@+@]%M ^%3+G.H.V W.7.W W W W W W W W p+0.f+B #%/%`@7+(%(%(%_%`@h$:%<%M &%s.s.s.[%+@[%D+).}%2#|%'+H.2.I.I.I.I.I.I.I.I.I.I.I.I.I.",
"1%1%2%l#@%R+i@o V W.7.W W W W W W W i$K./$y C@2%3%@.4%l#5%5%5%4%4%4%6%7%8%8%8%8%8%:.6%(@7+,%3.`+M#1.2.I.I.I.I.I.I.I.I.I.I.I.I.I.",
"Y@ ./$@.|+R+6@o I.J.7.W W W W W W W i$p+5$E$(%Y@ .9%0%a%a%a%a%a%b%3%3%3%3%3%3%3%/$9%0.7%M n@c%.@U.1.5.I.I.I.I.I.I.I.I.I.I.I.I.I."};
