/* XPM */
static char * floor2_xpm[] = {
"64 64 537 2",
"  	c #1F1E24",
". 	c #4A4759",
"+ 	c #4F4C5D",
"@ 	c #4F4C5C",
"# 	c #4D4B58",
"$ 	c #4D4A58",
"% 	c #4C4A57",
"& 	c #4B4956",
"* 	c #4A4855",
"= 	c #4A4854",
"- 	c #494754",
"; 	c #494753",
"> 	c #484652",
", 	c #474551",
"' 	c #464550",
") 	c #46444F",
"! 	c #43414C",
"~ 	c #2E2D37",
"{ 	c #131313",
"] 	c #33323C",
"^ 	c #42404B",
"/ 	c #42404C",
"( 	c #413F4A",
"_ 	c #403F4A",
": 	c #3F3E49",
"< 	c #3B3943",
"[ 	c #2E2D36",
"} 	c #17171C",
"| 	c #222026",
"1 	c #4C495C",
"2 	c #43414E",
"3 	c #383641",
"4 	c #302E39",
"5 	c #17161B",
"6 	c #0F0F14",
"7 	c #09080C",
"8 	c #030303",
"9 	c #1D1C22",
"0 	c #454352",
"a 	c #4D4A5A",
"b 	c #4D4B59",
"c 	c #4C4A58",
"d 	c #060606",
"e 	c #1C1C1D",
"f 	c #252429",
"g 	c #34323D",
"h 	c #3F3D49",
"i 	c #474554",
"j 	c #4A4857",
"k 	c #4B4858",
"l 	c #4C4959",
"m 	c #1E1D22",
"n 	c #1F1E23",
"o 	c #403E4A",
"p 	c #3C3A44",
"q 	c #33313B",
"r 	c #22212A",
"s 	c #0C0C0C",
"t 	c #1D1D1D",
"u 	c #1D1C1E",
"v 	c #18171A",
"w 	c #171719",
"x 	c #19181D",
"y 	c #18171C",
"z 	c #18181D",
"A 	c #18171E",
"B 	c #0B0B0E",
"C 	c #090909",
"D 	c #1D1C1F",
"E 	c #413E4C",
"F 	c #4E4C5A",
"G 	c #26252E",
"H 	c #1F1F25",
"I 	c #171619",
"J 	c #151416",
"K 	c #171717",
"L 	c #1B1B1F",
"M 	c #222128",
"N 	c #464453",
"O 	c #494756",
"P 	c #4D4A59",
"Q 	c #1D1D1E",
"R 	c #3D3B48",
"S 	c #484654",
"T 	c #464451",
"U 	c #43424D",
"V 	c #3D3C46",
"W 	c #37363F",
"X 	c #282730",
"Y 	c #0F0F0F",
"Z 	c #2C2B35",
"` 	c #36353E",
" .	c #323139",
"..	c #302F38",
"+.	c #2F2E37",
"@.	c #2C2B33",
"#.	c #29282F",
"$.	c #212027",
"%.	c #131218",
"&.	c #141315",
"*.	c #34333D",
"=.	c #4A4858",
"-.	c #504D5D",
";.	c #393742",
">.	c #3A3943",
",.	c #34323C",
"'.	c #212029",
").	c #18171D",
"!.	c #131317",
"~.	c #131215",
"{.	c #161616",
"].	c #181719",
"^.	c #2E2C37",
"/.	c #3D3B46",
"(.	c #4B4857",
"_.	c #474553",
":.	c #2C2B32",
"<.	c #2B2A30",
"[.	c #4B4859",
"}.	c #4E4C5C",
"|.	c #43414D",
"1.	c #41404B",
"2.	c #3E3D47",
"3.	c #2C2B34",
"4.	c #393843",
"5.	c #3E3D48",
"6.	c #393841",
"7.	c #383740",
"8.	c #36353D",
"9.	c #34333B",
"0.	c #2F2E36",
"a.	c #27262E",
"b.	c #1A191F",
"c.	c #0C0C0E",
"d.	c #0D0D0D",
"e.	c #27262D",
"f.	c #494656",
"g.	c #4F4C5B",
"h.	c #0E0E0E",
"i.	c #3C3B47",
"j.	c #3E3C47",
"k.	c #2B2A33",
"l.	c #282731",
"m.	c #23222B",
"n.	c #1D1C24",
"o.	c #16151B",
"p.	c #131314",
"q.	c #181818",
"r.	c #1C1B20",
"s.	c #232229",
"t.	c #35333D",
"u.	c #403E4D",
"v.	c #1E1D1F",
"w.	c #3F3C4C",
"x.	c #4F4B5F",
"y.	c #504D5F",
"z.	c #4D4B5A",
"A.	c #4A4856",
"B.	c #44434F",
"C.	c #3F3E48",
"D.	c #3D3B45",
"E.	c #312F39",
"F.	c #151515",
"G.	c #3C3A46",
"H.	c #413F4B",
"I.	c #3C3B45",
"J.	c #3A3842",
"K.	c #35343D",
"L.	c #2E2D35",
"M.	c #24232C",
"N.	c #111115",
"O.	c #0B0B0B",
"P.	c #1C1B1D",
"Q.	c #42404E",
"R.	c #4C4A5A",
"S.	c #101010",
"T.	c #3F3D4A",
"U.	c #43424E",
"V.	c #3B3A44",
"W.	c #393842",
"X.	c #383640",
"Y.	c #35343E",
"Z.	c #2D2C35",
"`.	c #2A2932",
" +	c #25242C",
".+	c #131216",
"++	c #111113",
"@+	c #232226",
"#+	c #494657",
"$+	c #484653",
"%+	c #31303A",
"&+	c #3E3C49",
"*+	c #3B3A43",
"=+	c #28272F",
"-+	c #19181F",
";+	c #141414",
">+	c #2D2B36",
",+	c #403E4C",
"'+	c #454350",
")+	c #383741",
"!+	c #373640",
"~+	c #292831",
"{+	c #201F27",
"]+	c #15141A",
"^+	c #08070A",
"/+	c #0A0A0D",
"(+	c #1B1A21",
"_+	c #18181A",
":+	c #201F22",
"<+	c #383642",
"[+	c #171718",
"}+	c #3C3B48",
"|+	c #222129",
"1+	c #0E0E10",
"2+	c #0A0A0A",
"3+	c #111111",
"4+	c #3C3A45",
"5+	c #100F14",
"6+	c #111114",
"7+	c #1D1C23",
"8+	c #151517",
"9+	c #1C1C1F",
"0+	c #363440",
"a+	c #32313B",
"b+	c #161518",
"c+	c #413F4C",
"d+	c #25242D",
"e+	c #151419",
"f+	c #16151A",
"g+	c #151418",
"h+	c #32313A",
"i+	c #19181E",
"j+	c #141415",
"k+	c #141316",
"l+	c #403E4B",
"m+	c #373540",
"n+	c #1A1A20",
"o+	c #17161A",
"p+	c #26252D",
"q+	c #35343C",
"r+	c #19181C",
"s+	c #3D3C47",
"t+	c #403F49",
"u+	c #35333E",
"v+	c #151417",
"w+	c #24232B",
"x+	c #27252E",
"y+	c #37353F",
"z+	c #201F26",
"A+	c #373541",
"B+	c #19191C",
"C+	c #413F4D",
"D+	c #464450",
"E+	c #18181B",
"F+	c #121212",
"G+	c #454251",
"H+	c #494755",
"I+	c #111112",
"J+	c #292830",
"K+	c #1D1D1F",
"L+	c #393743",
"M+	c #444251",
"N+	c #474453",
"O+	c #42404D",
"P+	c #25242B",
"Q+	c #403E49",
"R+	c #474555",
"S+	c #4C4958",
"T+	c #474552",
"U+	c #3C3A47",
"V+	c #3E3B4A",
"W+	c #25232C",
"X+	c #19191D",
"Y+	c #3F3E4B",
"Z+	c #454254",
"`+	c #4A4758",
" @	c #4A4757",
".@	c #42414C",
"+@	c #45434F",
"@@	c #33323A",
"#@	c #2C2C34",
"$@	c #121117",
"%@	c #26252C",
"&@	c #050505",
"*@	c #161517",
"=@	c #201F24",
"-@	c #444151",
";@	c #464352",
">@	c #44424E",
",@	c #3B3945",
"'@	c #1A1A1A",
")@	c #464452",
"!@	c #33323B",
"~@	c #17161C",
"{@	c #0A0A0C",
"]@	c #3A3945",
"^@	c #131217",
"/@	c #0D0D0F",
"(@	c #0F0F10",
"_@	c #2D2B35",
":@	c #3D3B49",
"<@	c #474454",
"[@	c #4B4958",
"}@	c #4C4A59",
"|@	c #43414F",
"1@	c #373542",
"2@	c #494655",
"3@	c #33313C",
"4@	c #3D3C45",
"5@	c #3B3A46",
"6@	c #1D1C21",
"7@	c #1E1D24",
"8@	c #2A2931",
"9@	c #111014",
"0@	c #101012",
"a@	c #151516",
"b@	c #43404F",
"c@	c #484557",
"d@	c #3A3843",
"e@	c #2D2C36",
"f@	c #1D1C20",
"g@	c #161519",
"h@	c #3C3B44",
"i@	c #232228",
"j@	c #3F3D48",
"k@	c #3B3947",
"l@	c #1B1A1E",
"m@	c #3C3B46",
"n@	c #393741",
"o@	c #1C1B22",
"p@	c #141318",
"q@	c #121214",
"r@	c #121215",
"s@	c #121216",
"t@	c #14141B",
"u@	c #444252",
"v@	c #3E3C48",
"w@	c #302E38",
"x@	c #121112",
"y@	c #27262F",
"z@	c #44434E",
"A@	c #34333C",
"B@	c #26252F",
"C@	c #111015",
"D@	c #0F0F11",
"E@	c #202027",
"F@	c #2C2A32",
"G@	c #25252B",
"H@	c #28272E",
"I@	c #363540",
"J@	c #121213",
"K@	c #14131A",
"L@	c #0E0E0F",
"M@	c #312F3A",
"N@	c #454351",
"O@	c #474652",
"P@	c #313039",
"Q@	c #121114",
"R@	c #1F1E25",
"S@	c #36353F",
"T@	c #17171D",
"U@	c #1E1E20",
"V@	c #3A3944",
"W@	c #1B1B1C",
"X@	c #33323D",
"Y@	c #3A3942",
"Z@	c #25252D",
"`@	c #1E1D21",
" #	c #302E37",
".#	c #292730",
"+#	c #242327",
"@#	c #434150",
"##	c #16161A",
"$#	c #1E1E23",
"%#	c #3A3845",
"&#	c #2B2A32",
"*#	c #1A1A1D",
"=#	c #131316",
"-#	c #1B1A20",
";#	c #161618",
">#	c #3F3D4B",
",#	c #464351",
"'#	c #1A1822",
")#	c #1C1B21",
"!#	c #373641",
"~#	c #131315",
"{#	c #44424F",
"]#	c #111012",
"^#	c #1A191E",
"/#	c #19191B",
"(#	c #302F39",
"_#	c #141314",
":#	c #3A3844",
"<#	c #151519",
"[#	c #201F25",
"}#	c #1F1F26",
"|#	c #161617",
"1#	c #1A191D",
"2#	c #191919",
"3#	c #41404C",
"4#	c #34333E",
"5#	c #2E2C36",
"6#	c #141417",
"7#	c #26242C",
"8#	c #444250",
"9#	c #3D3B47",
"0#	c #42404F",
"a#	c #464552",
"b#	c #181718",
"c#	c #3B3944",
"d#	c #1E1D23",
"e#	c #18171B",
"f#	c #16161B",
"g#	c #18171F",
"h#	c #383742",
"i#	c #141418",
"j#	c #3D3A49",
"k#	c #212026",
"l#	c #15151A",
"m#	c #23222A",
"n#	c #413F4E",
"o#	c #42414D",
"p#	c #484555",
"q#	c #36363E",
"r#	c #2D2C34",
"s#	c #1D1D24",
"t#	c #1D1D21",
"u#	c #464353",
"v#	c #1E1E21",
"w#	c #2C2A33",
"x#	c #41404D",
"y#	c #2E2D38",
"z#	c #1A1A1C",
"A#	c #34323F",
"B#	c #18181E",
"C#	c #3B3A45",
"D#	c #36343E",
"E#	c #17161D",
"F#	c #27252D",
"G#	c #2F2E39",
"H#	c #464355",
"I#	c #161619",
"J#	c #0E0E11",
"K#	c #28262D",
"L#	c #464354",
"M#	c #17171A",
"N#	c #0F0F12",
"O#	c #1F1E26",
"P#	c #393744",
"Q#	c #242329",
"R#	c #0E0D10",
"S#	c #09090D",
"T#	c #222224",
"U#	c #202028",
"V#	c #0F0E12",
"W#	c #24232D",
"X#	c #1B1B1B",
"Y#	c #484554",
"Z#	c #2A2933",
"`#	c #3E3D49",
" $	c #22222A",
".$	c #2B2B33",
"+$	c #3E3C4A",
"@$	c #171618",
"#$	c #131213",
"$$	c #141317",
"%$	c #25252C",
"&$	c #302F37",
"*$	c #2C2A34",
"=$	c #18181C",
"-$	c #17171B",
";$	c #33313E",
">$	c #1A1920",
",$	c #23232B",
"'$	c #313038",
")$	c #070707",
"!$	c #34343C",
"~$	c #141416",
"{$	c #1A1A1B",
"]$	c #0F0F13",
"^$	c #36343F",
"/$	c #202021",
"($	c #212028",
"_$	c #2F2E38",
":$	c #2B2932",
"<$	c #171617",
"[$	c #27252F",
"}$	c #3F3D4C",
"|$	c #100F11",
"1$	c #1B1B20",
"2$	c #0D0C0E",
"3$	c #101013",
"4$	c #1A1A21",
"5$	c #0E0D11",
"6$	c #080809",
"7$	c #141419",
"8$	c #0B0B0D",
"9$	c #1A191C",
"0$	c #222028",
"a$	c #1F1F24",
"b$	c #2F2D37",
"c$	c #1C1C23",
"d$	c #1B1A1F",
"e$	c #1E1E25",
"f$	c #1E1D25",
"g$	c #35343F",
"h$	c #222229",
"i$	c #3E3C4C",
"j$	c #454252",
"k$	c #111017",
"l$	c #2D2D34",
"m$	c #0F0E10",
"n$	c #121115",
"o$	c #15151B",
"p$	c #101015",
"q$	c #474455",
"r$	c #24242B",
"s$	c #19191F",
"t$	c #212128",
"u$	c #1C1C22",
"v$	c #1D1D23",
"w$	c #202026",
"x$	c #212127",
"y$	c #24232A",
"z$	c #101011",
"A$	c #484655",
"B$	c #302F36",
"C$	c #292930",
"D$	c #28282F",
"E$	c #2A2A31",
"F$	c #2B2A31",
"G$	c #2B2B32",
"H$	c #313037",
"I$	c #2F2E35",
"J$	c #2E2D34",
"K$	c #2E2E35",
"L$	c #1C1B1F",
"  . + @ @ # $ % % & * = - ; > > , ' ) ! ~ { ] ^ / ^ ( _ _ _ _ _ _ _ _ _ _ _ _ _ _ _ : < [ } | 1 2 3 4 5 6 7 8 8 9 0 a b c & - > ",
"d e f g h i j k l c $ c % & * * = ; > / m n o ! ^ ( _ _ _ _ _ _ _ _ _ _ _ _ _ _ _ _ : p q r s t u v w x y z A B C D E l F b % * ",
"d G H I J K L M q N O j l P # $ % & - o Q R S T U ^ _ _ _ _ _ _ _ _ _ _ _ _ _ _ _ _ : V W X Y Z `  .....+.@.#.$.%.C &.*.=.-.F $ ",
"s ;.>.,.X '.).!.~.{.].m ^./.i j j (._.:.<.[.}.(.T |./ 1._ _ _ _ _ _ _ _ _ _ _ _ _ _ _ 2.>.3.{ 4.5.p 6.7.W 8.9.0.a.b.c.d.e.f.@ g.",
"h.i.( j.>.] [ k.l.m.n.o.~.p.q.r.s.t.u.v.w.x.y.z.A.T B.|./ 1._ _ _ _ _ _ _ _ _ _ _ _ _ C.D.E.F.G.H.j.I.< < < J.7.K.L.M.N.O.P.Q.R.",
"S.T.U.H.2.V.W.X.Y.] ..Z.`. +'.)..+++S.d S.@+T.#+k - $+T B.|./ 1._ _ _ _ _ _ _ _ _ _ _ C.D.%+{.&+2 ( 2.I.I.I.I.*+W.W  .=+-+s ;+>+",
"S.,+'+|._ C.2.V /.p J.)+!+K.] ..~+{+]+^+/+(+_+:+<+0 f.- $+T B.|./ 1._ _ _ _ _ _ _ _ _ : D.%+[+}+2 H.C.V I.I.I.I.V.< 7.9.3.|+1+2+",
"3+,+'+|.1.: : : : 5.5.j./.4+V.>.W [ |+5+6+%+[ 7+8+9+0+0 f.- $+T B.|./ 1._ _ _ _ _ _ _ : /.a+b+E.c+1.C.D.I.I.I.I.I.I.< 6.` ..d+e+",
"S.,+'+|.1.: : : : : : : : 5.2.2.I.)+[ f+g+4.< h+a.i+j+9+0+0 f.- $+T B.|./ 1._ _ _ _ _ : /.a+k+=+l+1.C.V I.I.I.I.I.I.I.V.J.` h+@.",
"S.,+'+|.1.: : : : : : : : : : : 5.4+m+n+o+G.5.< K.@. +i+&.9+0+0 f.- $+T B.|./ 1._ _ _ C./.q k+p+l+1.C.V I.I.I.I.I.I.I.I.I.< 7.q+",
"S.,+'+|.1.: : : : : : : : : : : : /.m+} r+&+_ s+>.`  .@. +i+j+9+0+0 f.- $+T B.|./ 1._ t+V q k+p+l+1.C.V I.I.I.I.I.I.I.I.I.I.< 6.",
"S.,+'+|.1.: : : : : : : : : : : C./.u+v+w+o 1.: V < 7.K. .@. +i+j+9+0+0 f.- $+T B.|./ _ j.g v+d+l+1.: V I.I.I.I.I.I.I.I.I.I.I.I.",
"S.,+'+|.1.: : : : : : : : : : : C./.g k+x+o 1.: V V I.< 7.K. .@. +i+j+9+0+0 f.- $+T B.|.C.y+z z+T.^ : V I.I.I.I.I.I.I.I.I.I.I.I.",
"S.,+'+|.1.: : : : : : : : : : : C./.g k+p+o 1.C.V V V V I.< 7.K. .@. +i+j+9+A+0 f.- $+T ! 4+9 B+T./ : V I.I.I.I.I.I.I.I.I.I.I.I.",
"3+C+T |.1._ : : : : : : : : : : 5./.a+~.p+o H.C.V V V V V V I.< 7.K. .@. +i+j+9+A+0 f.- D+: $.E+T./ : V I.I.I.I.I.I.I.I.I.I.D.V ",
"F+G+H+T U./ ( ( : : : : : : : : 5.4+%+I+J+H.( C.V V V V V V V V I.< 7.K. .@. +i+j+K+L+M+N+O+P+B+T./ Q+j.I.I.I.I.I.I.I.I.I.V V j.",
";+R+S+H+T+B.U.|./ 1.( ( _ _ _ : 5./.] F.U+|.( C.V V V V V V V V V V I.< 6.K. .@.p+i+j+K+m+V+W+X+Y+|.o j.I.I.I.I.I.I.I.I.V V /.I.",
"3+Z+`+ @S T+T+T '+B.U.|.|.|..@^ H.: !+K T.+@^ C.V V V V V V V V V V V V I.< 6.` @@#@p+b.j+8+$@r+l+U.( 2.I.I.I.I.I.I.V V 2.2.4.%@",
"&@*@=@a+T.-@;@N+T+T+T+_.$+_._.T >@^ ,@'@Q.)@|.Q+2.V V V V V V V V V V V V V I.< 6.W !@Z.p+~@{@m c+|._ j.I.I.I.I.V V C.Q+o ]@|+d.",
"^@5+/@(@{ j+L _@:@-@<@ @[@}@O i |@Y+1@'@M+2@B._ 2.V V V V V V V V V V V V V V V I.< 6.W !@a.p.3@o 1.: V 4@V V j.C.Q+1.H.5@6@3+7@",
"8@J+=+a.M.).9@0@{ a@m 3@b@c@d@e@f@g@Y { R+j '+1.2.V V V V V V V V V V V V V V V V V h@< !+p+i@4+: C.j@2.j.C.: Q+( o Y+k@l@S.=+m@",
"!+!+n@6.y+h++.3.d+o@p@q@F+{ F+r@s@p@t@;+u@(.T / 2.V V V V V V V V V V V V V V V V V V I.*.Q m+j.C.C.j@C.Q+o : v@U+w@9 x@2+y@H.z@",
"C.2.j@j./.p V.>.7.A@+.B@C@D@G @.3.X E@6+F@N+T .@C.V V V V V V V V V V V V V V V V V V W.G@H@m@: : Q+o : v@R I@$.b+J@s@K@L@M@N@O@",
"1.1.1._ _ t+C.2.V V.W.P@Q@R@S@7.W P@J+T@_+Q.T+|._ 2.V V V V V V V V V V V V V V V h@J.Z.U@V@o 1.1.h R I@$.b+;+g+7@a.a. +-+W@C+H+",
"1.1.1.1.1.1.1._ _ C.4+M@F.X@V.>.Y@W P@Z@q@] '+U.H.5.V V V V V V V V V V V V V V *+J.a+`@ #h h &+5@.#r+;+g+7@X #@h+` A@..=+z +#@#",
"1.1.1.1.1.1.1.1.1.t+V.  l@4./.I.V.W.W 3.##$#|@+@.@: 2.V V V V V V V V V V V V h@6.A@$.l@%#}+&#*#F.=#-#y@#@P@` 7.7.W.J.W !@=+;#`.",
"1.1.1.1.1.1.1.1.1.Q+;.;#~+m@V I.V.*+7.h+m.{.>#,#|.( 2.V V V V V V V V V V V V < 7.[ 3+'#)#[+v+-#y@@...K.7.7.6.>.< h@V.>.7.h+$.Y ",
"1.1.1.1.1.1.1.1._ 2.e@a@!#s+I.I.*+*+W.K.8@~#3.{#{#1.C.V V V V V V V V V V V V < 7.Z.O.]#)#y@[ P@8.W 7.6.J.< V.I.V V V V >.W L.)#",
"1.1.1.1.1.1.1.1.t+V.9 ^#V@s+I.V.*+*+>.7.0.b./#C+)@.@Q+2.V V V V V V V V V V V < )+Z.3+(#)+J.6.6.6.J.>.V.I.V V V V V V V I.J.8.[ ",
"1.1.1.1.1.1.1.( Q+3 8+X m@/.I.V.*+*+*+6.!@p+_#:#,#U.( 5.V V V V V V V V V V V *+)+3.;+:#5.V V.V.V.I.V V V V V V V V V V V h@)+A@",
"1.1.1.1.1.1.1._ 2.Z a@m+s+I.I.*+*+*+*+Y@` 3.<#[#|@+@/ C.2.V V V V V V V V V V *+)+3.;+G.o C.V V V V V V V V V V V V V V V V *+7.",
"1.1.1.1.1.1.1.t+V.9 l@V@s+I.V.*+*+*+*+*+7.P@}#a@>#,#|.( 2.V V V V V V V V V V *+)+3.F.R / o 2.V V V V V V V V V V V V V V V I.V.",
"1.1.1.1.1.1.( C.S@|#_@m@/.I.V.*+*+*+*+*+6.A@X q@3.{#U.1.j@V V V V V V V V V V h@6.~ F.&+/ o 2.V V V V V V V V V V V V V V V V I.",
"1.1.1.1.1.1._ s+p+8+!#j.I.I.*+*+*+*+*+*+>.W L.).1#C+'+.@: 2.V V V V 2.V 2.5.C.V h@a+K T.|.( 2.V V V V V V V V V V V V V V V V V ",
"1.1.1.1.1.1.t+>.r+9 V@s+I.V.*+*+*+*+*+*+*+7.@@d+_#,@,#U.( C.2.2.5.C.C.: _ ( 1.Q+5.!+2#,++@3#5.V V V V V V V V V V V V V V V V V ",
"1.1.1.1.1._ C.4#a@5#m@/.I.V.*+*+*+*+*+*+*+W.8.&#6#7#8#T U.1._ _ ( 1.1./ .@/ H.T.9#X@q.0#a#|.: 2.V V V V V V V V V V V V V V V V ",
"U |..@1.1._ s+p+8+!#s+I.I.*+*+*+*+*+*+*+*+*+7...7@b#@#O T++@U .@/ H.l+l+&+L+.#9 g@Y F+M+_.U.Q+2.V V V V V V V V V V V V V V V V ",
"T '+>@U ^ _ c#X+d#V@s+I.V.*+*+*+*+*+*+*+*+*+6.@@w+p.L+f._.M+O+T.<+.#9 e#F.;+r@p@f#g#;+M+_.U.Q+2.V V V V V V V V V V V V V V V V ",
"- $+T+T +@/ h#[+4 s+/.I.V.*+*+*+*+*+*+*+*+*+W.A@=+i#L j#3@k#1#F.{ r@l#b.G ~+k.3.`.m#F.n#T o#C.V V V V V V V V V V V V V V V V V ",
"<@p#H+- T+o#=+*#i.o V I.*+*+*+*+*+*+*+*+*+*+Y@q#r#s#2+{.v ).o@d+X `.[ P@K.!+!+` !@X F.l+>@H.C.V V V V V V V V V V V V V V V V V ",
"t#(#@#u#i @#v#w#x#3#j.V.*+*+*+*+*+*+*+*+*+*+*+7. .w+Y y#` Y.*.K.S@!+n@6.J.Y@*+W.!+k.{.,+{#( 2.V V V V V V V V V V V V V V V V V ",
"o.k+{.z#H@A#'@u.,#/ 5.h@*+*+*+*+*+*+*+*+*+h@V.>.W 3.;+,@C.V V.J.Y@*+V.I.I.V /.I.)+Z K 0#a#|.Q+2.V V V V V V V V V V V V V V V I.",
"+.k.M.B#6+h.Y u.)@|.: I.*+*+*+*+*+*+*+V.I.I.s+I.*+a+K &+o#_ s+I.V s+s+s+s+s+s+V.W X q.N H+'+1.5.V V V V V V V V V V V V V V C#,.",
"*+6.D#Z.w+E#2+F#|@U.o /.h@*+*+*+h@V.I./.j.5.: s+d@G#K C+'+|.o s+s+s+s+s+s+s+s+Y@!@ +{.H#a H+>@( j@2.V V V V V V V V V V V I.4#I#",
"j@V I.J.h+d+J#v+,+8#1.j.I.h@V.I.I.s+2.j@h s+5@*.d#L@F+|@a#2 _ 5.s+s+s+s+s+s+/.W.P@m#O.K#L#j T+2 1.C.2.V V V V V V V V V I.Y.M#N#",
"( Q+C.j.>.%+O#S.P#{#o#: 2.I.s+j.5.: v@i.%#Q#*@3+R#S#r+|@T |.o s+s+s+s+s+s+s+s+J.h+w+C e+T#&+;@T >@3#Q+5.2.V V V V V V I.m+M#I+l.",
"( ( ( Q+s+Y@~ 6+  Q.'+/ o : : h i.]@~ *#;+.+b.U#s#V#s.O+>@3#C.s+s+s+s+s+s+s+s+V.K.a.Y W#s.X#5#Q.Y#+@o#( j@2.V V V V V ;.$.;+Z#>.",
"( ( ( ( C.I.` d#|#C+i '+|.`#5@u+$.a@q@y  $=+.$@.w+++E.O+/ o j@s+s+s+s+s+s+s+s+I.n@Z.q@|+I@p+v Q#n#N+'+2 1.C.2.V V V d@M {.Z#>.V ",
"( ( ( ( Q+j.>.Z J A+u#M++$~+@$#$$$7@%$8@&$ . .0.z+p.5@3#( j@s+s+s+s+s+s+s+s+s+V >.a+i+r.G.>.*$=$K+5@8#T >@3#Q+C.V V@y@K Z#>.V V ",
"( ( ( ( ( j@V.a+p@-$;$s.K ~#>$,$a.L.'$@@9.9.9.[ z e#9#H.: j@s+s+s+s+s+s+s+s+s+s+V.Y.z+r+&+: >.k.b.K Z.Q.Y#'+|.H.s+e@2#Z#>.V V s+",
"( ( ( ( ( C.I.t.^@)$++-$w+=+.$&$ .9.!$q+K.` K.Z.~#p+h _ : 5.s+s+s+s+s+s+s+s+s+s+I.n@Z#K +$2 2.n@3.o@~$Q#n#_.T O+4#{$8@c#V V s+2.",
"( ( ( ( ( Q+V ] L@]$d+@.'$ .@@9.q+K.` q#W ` q+`.{ ^$o _ C.s+s+s+s+s+s+s+s+s+s+s+I.W.e@8+]@{#1.I.` [ M.##K+U+M++$/$8@v@1._ : C.2.",
"( ( ( ( t+Q+4+ +s }#h+A@q+q+K.` q#W W W W K.h+($a@5@H.Q+j@s+s+s+s+s+s+s+s+s+s+s+V Y@_$g@:$Q.o#h V.y+P@X ).<$[$L d+}$8#+@2 o#1._ ",
"( ( ( ( Q+C.;.q@|$..` ` ` ` W W W W W W q#K.+.-$1$9#( : j@s+s+s+s+s+s+s+s+s+s+s+s+*+!@-#$#C+2 _ 2.*+7.!@a.~@2$d 3$u+0#N T+'+B.|.",
"( ( ( _ Q+j.e@h.m#W 7.7.W W W W W W W W ` K.#@~#=+h _ : 2.s+s+s+s+s+s+s+s+s+s+s+s+V.S@ +l@,+U.1.5.I.V.6.'$p+4$5$6$s E+A+0#N _.T ",
"1.1.1.1.( C#x Y a+6.7.7.W W W W W W W W ` q+~+F.]@H.( C.5.s+s+s+5.5.5.5.5.j@5.5.j@V Y@e@q.>#'+.@: V I.V.7.+.H@M 7@7$8$h.I#8@n#0 ",
"U.U.U.U H.*.Y -#W W.7.W W W W W W W W q#K.'$7+I `#o#1._ _ Q+Q+o o _ _ _ ( H.H.H.H._ s+S@9$,@,#2 o V I.I.C#n@A@..[ @.G i+J#O.j+0$",
"T T T D+3#M I+4#V@6.7.W W W W W W W W q#9.@.<#k#C+'+U.|.o#o#o#o#|.|.|.2 2 2 2 U.U.2 H.I.a$b$N T / j@I.I.I.C#V.Y@6.W K.+.J+c$N#C ",
"@#@#|@Q.:@j+d$,@I.W.7.W W W W W W W W K. .a.j+m+)@_.'+O+O+O+O+|@8#|@Q.Q.Q.Q.Q.Q.Q.C+T.%#e$Q#<@S {#Q+V I.I.I.I.I.C#V.W.!+K...~+f$",
"l@1#F.;+Y s g$v@V J.7.W W W W W W W W A@&$h$;+i$j$0#U+..w#k.3.3.3.~+f@x x x 1#1#x J F+Y C d$#+j T H.V I.I.I.I.I.I.I.C#V.J.!+K. .",
"s@!.B#E#k$Y i.H.V J.7.W W W W W W W W q+l$5 )$;+q.{.#$|$m$m$m$m$|$|$9@9@9@n$n$n$.+f#).o$p${.q$[@T 1.2.I.I.I.I.I.I.I.I.I.I.V.J.7.",
"P+P+r$M s$3+G.H.V W.7.W W W W W W W W q+0.f+B f$t$R@7+u$u$u$v$R@}#w$x$M h$s.s.s.y$P+y$z+).z$c#A$'+H.2.I.I.I.I.I.I.I.I.I.I.I.I.I.",
"r#r#&#H@e$F+5@o V W.7.W W W W W W W q#K.&$y q@&#B$@.C$H@D$D$D$C$C$C$E$F$G$G$G$G$G$:.E$%@7+m$3.M+{#1.2.I.I.I.I.I.I.I.I.I.I.I.I.I.",
"P@ .&$@.|+F+]@o I.J.7.W W W W W W W q#q+'$-#u$P@ .H$I$J$J$J$J$J$K$B$B$B$B$B$B$B$&$H$0.F$M 9@L$O+U.1.5.I.I.I.I.I.I.I.I.I.I.I.I.I."};
