/* XPM */
static char * floor3_xpm[] = {
"64 64 450 2",
"  	c #352967",
". 	c #47328B",
"+ 	c #48348A",
"@ 	c #463387",
"# 	c #483588",
"$ 	c #463685",
"% 	c #453582",
"& 	c #453581",
"* 	c #443480",
"= 	c #43347E",
"- 	c #42347C",
"; 	c #42337B",
"> 	c #403279",
", 	c #42337C",
"' 	c #41327A",
") 	c #3F3078",
"! 	c #3E3076",
"~ 	c #392B6F",
"{ 	c #352968",
"] 	c #392B70",
"^ 	c #3E3075",
"/ 	c #3F3177",
"( 	c #403278",
"_ 	c #403378",
": 	c #41337B",
"< 	c #41337C",
"[ 	c #41317B",
"} 	c #40337B",
"| 	c #3F3277",
"1 	c #3E2F74",
"2 	c #3E2F75",
"3 	c #3E3074",
"4 	c #41317C",
"5 	c #40327A",
"6 	c #3D3076",
"7 	c #3A2C6F",
"8 	c #3B2E71",
"9 	c #453387",
"0 	c #43327D",
"a 	c #3F2F77",
"b 	c #3D2E75",
"c 	c #392C6E",
"d 	c #382B6D",
"e 	c #36296B",
"f 	c #352965",
"g 	c #352866",
"h 	c #362A6B",
"i 	c #40307C",
"j 	c #42317D",
"k 	c #42327E",
"l 	c #443580",
"m 	c #43357F",
"n 	c #42347B",
"o 	c #322661",
"p 	c #382B6A",
"q 	c #392D6D",
"r 	c #3D2D73",
"s 	c #42317E",
"t 	c #453384",
"u 	c #463484",
"v 	c #453583",
"w 	c #443482",
"x 	c #443481",
"y 	c #43337F",
"z 	c #42337D",
"A 	c #42327D",
"B 	c #42347D",
"C 	c #41337A",
"D 	c #3E3078",
"E 	c #382A6C",
"F 	c #372B6D",
"G 	c #3D2E76",
"H 	c #3F3077",
"I 	c #3F3176",
"J 	c #3F3075",
"K 	c #3F3175",
"L 	c #41327B",
"M 	c #403179",
"N 	c #403078",
"O 	c #3E3174",
"P 	c #3E3077",
"Q 	c #3D2F76",
"R 	c #3A2C72",
"S 	c #392C6D",
"T 	c #3A2E6E",
"U 	c #3A2E6F",
"V 	c #382C6F",
"W 	c #372B6C",
"X 	c #362969",
"Y 	c #362A69",
"Z 	c #362A67",
"` 	c #3E2E78",
" .	c #43317F",
"..	c #443380",
"+.	c #44347F",
"@.	c #43347D",
"#.	c #312761",
"$.	c #392C72",
"%.	c #382B6C",
"&.	c #352966",
"*.	c #382C6C",
"=.	c #392C6B",
"-.	c #3B2C6F",
";.	c #443282",
">.	c #453283",
",.	c #443381",
"'.	c #44337F",
").	c #433280",
"!.	c #43347F",
"~.	c #43337D",
"{.	c #42327C",
"].	c #3F3179",
"^.	c #382C6B",
"/.	c #3F2E79",
"(.	c #40307A",
"_.	c #3F3178",
":.	c #3E3177",
"<.	c #413379",
"[.	c #3F337A",
"}.	c #3F3076",
"|.	c #3E3175",
"1.	c #3D2F74",
"2.	c #3C2F72",
"3.	c #3C2E71",
"4.	c #382A6D",
"5.	c #3C2F76",
"6.	c #3E3178",
"7.	c #3D3074",
"8.	c #3C2F73",
"9.	c #3D3075",
"0.	c #3B2E70",
"a.	c #392D6F",
"b.	c #382A6B",
"c.	c #342966",
"d.	c #3B2D71",
"e.	c #433281",
"f.	c #453483",
"g.	c #44337E",
"h.	c #332763",
"i.	c #3F307B",
"j.	c #3F317A",
"k.	c #3C2F74",
"l.	c #3A2D72",
"m.	c #392B6C",
"n.	c #3A2D6D",
"o.	c #3D2E73",
"p.	c #403079",
"q.	c #42317F",
"r.	c #43327F",
"s.	c #3A2C6E",
"t.	c #41317E",
"u.	c #40317C",
"v.	c #41327C",
"w.	c #41307A",
"x.	c #413279",
"y.	c #403178",
"z.	c #40337A",
"A.	c #3C3073",
"B.	c #352A67",
"C.	c #3E3277",
"D.	c #3C3074",
"E.	c #3A2E70",
"F.	c #392C70",
"G.	c #362A68",
"H.	c #362968",
"I.	c #443181",
"J.	c #463482",
"K.	c #30255C",
"L.	c #3E2E79",
"M.	c #3F3079",
"N.	c #3D2E77",
"O.	c #3C2E73",
"P.	c #3B2E72",
"Q.	c #3A2C70",
"R.	c #392A6D",
"S.	c #392C6C",
"T.	c #3B2D70",
"U.	c #3B2D72",
"V.	c #3E2F77",
"W.	c #3F2F7A",
"X.	c #422F80",
"Y.	c #453183",
"Z.	c #433180",
"`.	c #40327B",
" +	c #3D3176",
".+	c #3D3073",
"++	c #3E3173",
"@+	c #3D2F75",
"#+	c #3E3176",
"$+	c #403379",
"%+	c #3F3278",
"&+	c #372A6A",
"*+	c #392B69",
"=+	c #42307C",
"-+	c #433380",
";+	c #30265D",
">+	c #3B2E75",
",+	c #3D2F73",
"'+	c #3D2E72",
")+	c #3F2F79",
"!+	c #3D2F78",
"~+	c #3C2E74",
"{+	c #3D2D75",
"]+	c #3B2D73",
"^+	c #3A2C71",
"/+	c #3C2E72",
"(+	c #423180",
"_+	c #41327D",
":+	c #3F3279",
"<+	c #3E3073",
"[+	c #403277",
"}+	c #3C2E76",
"|+	c #40317A",
"1+	c #3D3175",
"2+	c #392D6E",
"3+	c #382B6E",
"4+	c #362967",
"5+	c #372C68",
"6+	c #3B2C72",
"7+	c #322760",
"8+	c #403177",
"9+	c #3C2F75",
"0+	c #3C2D72",
"a+	c #3B2E6F",
"b+	c #3B2D6F",
"c+	c #3D2E74",
"d+	c #3E2F78",
"e+	c #3C2D73",
"f+	c #3B2C71",
"g+	c #392B6E",
"h+	c #3A2B6D",
"i+	c #3E2F79",
"j+	c #3F3276",
"k+	c #3B2D6E",
"l+	c #3E3079",
"m+	c #3C3072",
"n+	c #392C6F",
"o+	c #372A6B",
"p+	c #362B68",
"q+	c #372B68",
"r+	c #332964",
"s+	c #3F307A",
"t+	c #3C2E70",
"u+	c #3B2F70",
"v+	c #3C2E75",
"w+	c #3A2D6E",
"x+	c #40317B",
"y+	c #42337E",
"z+	c #403176",
"A+	c #3D3177",
"B+	c #3B2F73",
"C+	c #3A2D6F",
"D+	c #332965",
"E+	c #3E3179",
"F+	c #3A2C6D",
"G+	c #3C2D71",
"H+	c #3A2D71",
"I+	c #3A2D70",
"J+	c #3F337C",
"K+	c #3F327A",
"L+	c #3B2F71",
"M+	c #352A66",
"N+	c #3E2F76",
"O+	c #3B2E73",
"P+	c #3C2F70",
"Q+	c #3F317D",
"R+	c #3C2F71",
"S+	c #3A2E71",
"T+	c #392B6B",
"U+	c #3B2F72",
"V+	c #362C6A",
"W+	c #392B6D",
"X+	c #3D2F77",
"Y+	c #3F2F78",
"Z+	c #372C6C",
"`+	c #372B6A",
" @	c #3D2F72",
".@	c #3C3071",
"+@	c #382B6B",
"@@	c #3E3276",
"#@	c #3D3077",
"$@	c #3E2F73",
"%@	c #3D3072",
"&@	c #40327C",
"*@	c #3B3073",
"=@	c #3C2D74",
"-@	c #382D6E",
";@	c #3E2E75",
">@	c #372B6B",
",@	c #41327E",
"'@	c #382D6C",
")@	c #42327F",
"!@	c #3F327B",
"~@	c #3D2D72",
"{@	c #3E3275",
"]@	c #392C71",
"^@	c #382C6E",
"/@	c #423181",
"(@	c #40337C",
"_@	c #3F3174",
":@	c #382C6D",
"<@	c #40307B",
"[@	c #413178",
"}@	c #3F2F76",
"|@	c #382D6D",
"1@	c #362B6A",
"2@	c #372B69",
"3@	c #40327D",
"4@	c #3C3075",
"5@	c #3A2D73",
"6@	c #392E6E",
"7@	c #3A2E72",
"8@	c #382C6A",
"9@	c #382B6F",
"0@	c #3A2C6C",
"a@	c #3D3172",
"b@	c #3D3173",
"c@	c #3E3278",
"d@	c #3A2F70",
"e@	c #382C69",
"f@	c #372C6A",
"g@	c #3D3174",
"h@	c #392D70",
"i@	c #392D6C",
"j@	c #3F317B",
"k@	c #403077",
"l@	c #3B2F6F",
"m@	c #372C6B",
"n@	c #392D6B",
"o@	c #403075",
"p@	c #3B2F74",
"q@	c #3B3072",
"r@	c #362A6A",
"s@	c #3C3174",
"t@	c #3A2F71",
"u@	c #3B3071",
"v@	c #392E70",
"w@	c #362A6C",
"x@	c #362B6C",
"y@	c #3D3274",
"z@	c #3C3070",
"A@	c #3A2F6F",
"B@	c #3F3378",
"C@	c #382D6F",
"D@	c #392E71",
"E@	c #3C2D76",
"F@	c #3C3172",
"G@	c #3B2E74",
"H@	c #392E6F",
"I@	c #3E3274",
"J@	c #3B2C73",
"K@	c #3D3277",
"L@	c #3A2F72",
"M@	c #403175",
"N@	c #3D3071",
"O@	c #3F3377",
"P@	c #372A6C",
"Q@	c #413079",
"R@	c #3E3279",
"S@	c #382D6B",
"T@	c #3C2D75",
"U@	c #3D3078",
"V@	c #3A2B6F",
"W@	c #392E6D",
"X@	c #352A68",
"Y@	c #362B6B",
"Z@	c #3A2F73",
"`@	c #3B3074",
" #	c #352A6A",
".#	c #3D307A",
"+#	c #362B69",
"@#	c #382C70",
"##	c #372B6E",
"$#	c #352A69",
"%#	c #3B2E6E",
"&#	c #3B2C70",
"*#	c #382E6D",
"=#	c #362B6D",
"-#	c #3D3178",
";#	c #372C6F",
">#	c #352B6A",
",#	c #3A2C73",
"'#	c #372D6B",
")#	c #372A68",
"!#	c #3A2E6D",
"~#	c #342965",
"{#	c #372D6A",
"]#	c #372D6C",
"^#	c #392E6C",
"/#	c #352B68",
"(#	c #372D69",
"_#	c #362A66",
":#	c #342967",
"<#	c #372A6D",
"[#	c #3D2F71",
"}#	c #41337D",
"|#	c #3B3070",
"1#	c #392F6E",
"2#	c #372D6D",
"3#	c #352969",
"4#	c #3D2D76",
"5#	c #3F2F7C",
"6#	c #433381",
"7#	c #362B67",
"8#	c #3A2D6C",
"9#	c #372A69",
"0#	c #433182",
"a#	c #443383",
"b#	c #372969",
"c#	c #40307F",
"d#	c #40307D",
"e#	c #362C69",
"f#	c #372C69",
"g#	c #36296A",
"h#	c #352868",
"i#	c #352B67",
"j#	c #392A6F",
"k#	c #37296D",
"l#	c #342764",
"m#	c #352A65",
"n#	c #362C68",
"o#	c #3A2E73",
"p#	c #3C3076",
"q#	c #3C3077",
"r#	c #342A64",
"s#	c #342A66",
"t#	c #342964",
"u#	c #342A65",
"v#	c #342864",
"w#	c #352869",
"x#	c #332865",
"y#	c #3D2C75",
"z#	c #3E2E76",
"A#	c #3D2E78",
"B#	c #342963",
"C#	c #342863",
"D#	c #342A67",
"E#	c #312763",
"F#	c #342868",
"G#	c #332866",
"H#	c #342968",
"I#	c #3D2C78",
"J#	c #3E2E74",
"K#	c #3F2E76",
"L#	c #382D6A",
"M#	c #3F2F75",
"N#	c #342C67",
"O#	c #352B66",
"P#	c #362D6A",
"Q#	c #372D68",
"  . + @ # $ % & * * = - ; ; > , , ' ) ! ~ { ] ^ / / ( _ : < [ } ' / | / 1 2 2 3 / > 4 5 6 7 8 9 0 a b c d e f g h i j k = l m n ",
"o p q r s t t u v w x y z A [ B = : C D E F G ! H H I J K ( ( > ' > < L M N ! 1 O ^ ^ P Q R S T U S S V c W h X Y Z `  ...+.* @.",
"#.$.%.&.*.=.S -.a ;.>.,.'.).A !.~.{.].b ^./.4 (.M _._./ :.I ^ ! :.> ' <.[.5 ].}.6 |.1.2.3.c 4.5.6.7.8.9.7.0.a.d b.c.g d.e.f.x g.",
"h.i.j.k.b l.d %.m.S n.c o.p.q.;.,.r.].s.d.t.u.v.w.M x.M _.y.! 7.|.H _._._.z.> _.]./ ^ A.0.E B.^ > y.C._.:.D.8 E.F.G.c.H.s.I.J.g.",
"K.L.L p.4 M.N.b O.P.Q.R.S.c *.T.U.V.W.c X.Y.Z.~.`._./ y._.]. +.+++1.@+#+/ > ( | $+> %+^ 2.V Y P.1.! / M ( %+9..+2.c &+H.{ *+=+-+",
";+>+2 ,+,+'+@+) M.)+!+~+{+]+^+F.7 F.*.7 T./+M.(+_+5 M.5 :+| |.3 3 <+! I | _./ I %+> > [+I P.%.}+Q 1.,+! M |+/ ^ 1+8 2+3+X 4+5+6+",
"7+N.8+9+0+a+b+3.'+c+@+M.W.d+~+e+f+Q.g+h+-.^+S.d.i+(.u.< : > :.#+|.3 }._.j+|.:.|.I / / _./ 9+k+l+D 1 8.2..+P H / I m+0.E.n+o+p+q+",
"r+s+L _.6.P 2 1 8.3.t+u+8.2 0+v+e+Q.3+m.w+c+U.d.c c Q x+y+C j.> ].#+I %+z+#+A+! / z+/ ^ 9.B+C+k.P ! ) 1./+2..+! / 8.8 8 8 C+3+p ",
"D+M.5 E+|+]._.D P Q 2.2.'+,+8 /+P.8 7 F+G+P 2 ~+H+n+S I+d+x+J+K+:+I 8+5 [+y.6._./ |.O ,+@+/+F+l.D P ! 7.k.2./+2.2./+0.P.L+8 P.8 ",
"M+(.x._.P 6 :.8+I |.N+1.Q }.2 1 b N+8.7 O+M ! c+O.H+l.f+b+P+a Q+} %+%+> ]._.8+| _./ ^ 7..+d.*.C+Q 7.9.! ,+,+1.,+R+S+E.3.3.2.8.A.",
"p+i C M M._.D D P ! @+/+^ P V.@+}.) G Q.]+|+2 7.P @+@+]+8 /+0.8 N+) K+> ].I K ( %+I P #+^ P.T+c 2 1.1.1.1.7.:.^ 2.8 d.U+P.8 8.1.",
"V+4 : 5 M / ( K+].P 1.8.3 P k.8.6 9.B+W+U.x+X+Y+6.:.#+D.O.O+O.d.U C+1.l+j._.| y.x.( #+C.I 8.Z+I+k.2.8.8./+8.! 8+@+7.2.,+2.U+,+2.",
"%.4 5 _.].> z.' > ) 2 2 N+P 8.9+P Q 6+`+7 ^ ! N+^ 6._.9.D.A.8.]+8 w+S c 1 D _.( L ( :./ I  @a.G+6 ,+2.0.a+P.@+! 6 ! ^ 7..@0.2.3.",
"*.u.> P 6._.%+6./ P 1.,+D.1 1.P M P e++@c v+v+o.k.^ @@1+#@A+1+9.~+E.H+n+q 7 b _.L M :+:+| ,+n+I+P ^ 1.R+8 2.2.1.$@1.1.7.%@R+8.O.",
"*.&@j.#+E+].E+P @+B+U+2.*@R+8 6.p.H O+W+~ =@~+O.,+8.@+3 1+6.| [+|.@+1.B+F.q -@w+;@|+} $+( 1.w+w+Y+9.@+7.k.R+I+U C+O.@+@+.+<+9.D.",
">@,@`.6.M ( :+P #@9.9+,+8.I+H+B+8.k.8 %.n+e+O+v+1 7.X+Q 7.|.I | | #+/ O 2.S+C+S '@t+_.5 x.^ 2+C+! ^ c+1.8.8 U E.U P.9.2 <+.+7.,+",
"*.)@,@!@L 5 > _.N+2 / }..+/+~@D.8.D.I+F e+U.U.@+N+! M.l+! 9+1.@+7.#+].%+{@D.U+]@^@7 S+3.N+2 7 c N+O.O.8.8.U+2. @8.2.8.8.U+R+8.O.",
"m./@q.,@y+z (@5 ! I %+( K 1 6 ! ! :.O.a.@+~+I+/+o.2.N+E+! 1./+8 8 8.P 8+%+@@_@8 a+I+8 0.C+q :@c V.8.P.9.A.8.R+P./+/+R+L+P.2.P.c ",
">@+@d 1.4 t.,@<@) [@5 5 N H l+D E+:.6 /+) }@/+0.~+d.0.9.3 9+,+L+P.P+@+6 9.#+#+7.D.1.8.O+I+q |@E.}.8.k.^ .+8.8. @m+.+%@A.1+~+:@p ",
"+@1@2@^.s.c C+S+P <@A 3@j.u.|+M ].}.@+/+p.H U+P.8.d.0.P.1+ +.+,+ @m+7.@+8.1.k.1.Q 4@^ N+O.I+C+1 #+1.1.#+O ,+m+A.3 P #+^ G %.2@S ",
"I+7 n+H+5@~ S 1@o+c C+~+)+i.N+H+|@n.6@P.x+) 2.8 /+d.l.u+A+|..+.+7.2.D.9.D.8.7@E.8 1.}.> P U.O.I {@k.D.}.^ 8.2..+3 ^ V.Q S.8@C+! ",
"8.A.D.9.@+9+O+n+S 9@d 8@&++@0@*.Z+c C+O.|+y.2 O.P.H+S+U+1+|.a@1.b@8.k.#+c@9.L+d@a.8 ,+H d+P./ / 1+R+P.P ^ 1.~+9.k.7 %.e@f@8 / :.",
"|.P P #+( #+@+2.2./+d.%.2@>@n+n+n+H+E.T.^ y.^ @+S+L+O.c+@+|.g@1+7.b@A.#+8+#+1.U+E.I+H+]+0./+y.:.g@B+2.P 6 5.U.c 8@p+`+V+p O.x+p.",
"|.%+C.C.5 _.^ 7.9.#+U+c >@:@8.8.E.l.l.h@/+) N+1.P.L+k.9+3 6./ A+4@%@R+7. +:.^ D.U+H+I+V *.O+^ :.#+1.O.G I+*.^.'@^.%.%.*.Z+i@s+x+",
"@@%+:.:.j@j.k@#+/ 6.k.I+:@A.@+7.8 S+H+6+/+P P @+P.8 k./+k.#+_.1+7.P+l@U+k.1. @m+2.P.a.%.7 d.c+Q e+g++@n+F+s.I+H+C+I+H+C+:@m@n@D ",
"C.$+%+6.E+#+o@_.5 > 1.n+C+9.{@1+1.L+0.h@n+O.D V.k.U+0.0.E.L+1.,+p@q@u+I+T.~+k.7.,+O+2+:@]+]+^@Z+>@r@+@H+8 8.~+2.0.8.8.L+0.q f@I+",
"#+_.:+l+X+9+O #+) ! U.Q.O.#+/ #+#+1 O.6+3+h@8./ 1.U+S+u+S+E.E.L+L+m+A.L+8 1.8.D.A.E.2+F.c :@S 2+2+q Q.1 Q 4@O.,+P.7.@+7.~+I+*.f@",
"g@s@A.R+/+9+7.9.~+E.%.E 8.9.P :.I 1 O+7 F :@F.#@1 7.A.m+t@E.U+D.b@.+a@u@L+m+1.7.7.P.S 2+I+E.8 L+v@U+m+4@4@8.1.9.1+#+:.#+#+c+Q.*.",
"|.O q@S+T d@R+8.~+2+w@h I+P.2.8.B+P.h@2+d x@n+V._.@@^ O m+U+b@y@O m+2.z@R+8.7./ 9.0.S 0.k.<+1+.+3.B+S+3.2.8.7.P #+/ / I 2 D.T.a.",
"c@1+9.B+8 L+.@4@P.I+d I+8 l.0.C+2+-@a.a.s.d ~ v+N j+:.@@D.8.9.O O D.U+.@R+A@k.6.9.H+V ~+D.D.9.8.L+U+P+U+8.2.9+H ! / P .+8.U+8 I+",
"$+C.C.|.A.R+B+9.8.H+^@1..+8.8.T.U S+d@P.H+n+V ^+k@#+c@#+p@2.9.7.#+O A.8.0.v@L+9.@+U.F.Q Q /+8 U 3.,+.+8.U+8.A.5.1.9.~+O.U+U+8 8 ",
"$+_ B@| |.^ k.1.O.k+I+9.O <+D.B+U+A.m+k.L+C@F 9@Q 6 / 3 R+m+9.9.:.O m+7.a+T D@k.3 l.n+c+c+8 a.I+8 8.7. +.+t@O+l.O.9+v+O+2.8.U+U+",
"I I #+ +#+|.1.8.O+w+O.P }.|.k.B+O+2.U+B+d@n+%.w@c 2 Q @+k.p@7.7.D.8.7@t@v@v@I+E.O+C+c ;@9.8 Q.P.U+k.<+,+2.2.U.H+U.X+5.k.D.9.D.A.",
"I I |.O O K ,+P.I+U.}+#@P @+p@L+U+L+/+R+8 c r@X +@O.2 6 2..@.+u+L+8 u+S+u+l@C+0.P.H+Q.#@! 8 8 S+h@S+O.U+I+C+0+U.O+E+| 9.#+|.g@D.",
"g@| #+9.3 7.k.S+d ^+E@~+8.H+I+H+H+8 B+2.U+C@W >@>@]+@+1. @F@A.m+.@2.0.L+L+8 0.p@k.7@H+].].P.S+E.E.E.d@8 u+O+G@b 8.> :+#+1+@@6 1+",
"9._.j+A+9.8.L+c G.S H+C+T c w+U U l@U+8..@H@q :@>@%.c+1.1 I@O |.g@7.A.m+a@7..@p@~+J@8 M P /+R+U+2.U+B+8.L+L+R+O+k.5 > I I @@j+@@",
"K I C.K@6 U+U h Z ^@q q n.2+w+C+C+a+L+8.L@E.6@S h b.v+N+M@| y./ #+ +D..+^ N@2+S 4.Z+I+p.y.1.1.7.A.s@.+ @m+a+8 8 8.5 %+/ :.#+O@| ",
"H #+D {@O D.t@f@2@q T H@a.*.n+T.T.L+u@*@A@H@T c P@:@U.}@/ > > 6.7.8 S -@6@-@W h h d 7 Q@M.@+k.g@9.g@O 8.B+0.8 u+U+_.R@/ 6.:.B@O@",
"P P P 6  +A+B+S@2+u+U E.I+I+d@d.0.L+q@2.E.d@L+E.V 3+3+T@c+@+8.a+2+2+d :@S+H+C@^@x@*.2+) _.9.6 7.! b@|.g@A.m+U+2.2.|.:.6.%+_.%+| ",
"Y+d+_.6.A+U@E.^@U+S+u+E.E.S+E.u+E.q@.@2.7@2.U+I+S W e r@V@0+O.u+0.t@U E.8.R+d@H@:@Z+^@z+#+1.6 7.|.1+|.|.|.g@A.D.2.6 @+3 6.6.R@%+",
"q O+D D :.A+W@a.8.B+0.0.0.S+8 8 8 2.R+L+8 0.0.T q >@X@Y@^+1.N+8.k.A.A.u+A.7..@U 2+c i@d+6.,+Q 7.:.@@/ |.#+1+D.A.U+V.! 9+1+_.:+:+",
"m@'@S@q E.P.n@k.1.t@U 2+I+0.E.d.S+R+u+a+U C+S+a+E.:@`+^@/+9.^ ! ! ^ 7.m+1+g@m+d@H@U 2+) 6.7.P #+| K #+|.|.g@.+2.U+Q D A+6 1+[+%+",
"h@C@:@:@c S@=.B+@+d@U -@n+a.a.a.a+a+U a+a+H@P.L+m+C+^.Q.P.1+#+#+#+#+|..+1+|.,+q@U+8 E.|+M 6 / 6 6.#+ +|.7.9+8.2.8.! V.P ].:.Q 7.",
"k.Z@H+S+a.m@8@v@`@u@T 6@2+q 2+q U a.U a+0.E.P.4@k.7@q 5@O+! ! ^ 9.s@b@O @@%+9.8.2.S+C+p.M.V.D #@) :.9.7.k.B+2.L+8 8.9.9.:.H v+d ",
"6 4@k.8.E.S.*.n+p@A.A@6@T 6@W@6@U U a+0.8 8 p@1.P.2+|@l.7@9+Q ! ! |.|.@+! 6 k.7@D@V F S }+N+) P H 6. +1+2.2..+2.S+8.k.6 X+=@d W+",
"2.L+u+8 c a.n+^@8 A.t@U E.U T l@u+0.8 8 v@*.2+d.I+2+n+O.8 O.b @+Q ~+,+2.7@8 b+2+^@%. #e >@d..#M.) ! P 9.7.1+|.D.L+k.4@k.O.>@E O.",
"E.6@U C+S a.^+^@a.8. @2.L+t@u+U+P.E.c >@+#`+:@]@I+S @#d.l.H+Q.C+U.E.C+W@n+6@c :@S ##+#o+r@$#0+M.s+! _.:.1+@@@@{@A.9.A+8.>@G.]@6 ",
"E.%#a+2+:@C+&#V 2+k.@+,+U+S+U E.:@`++#2@r@>@*.2+s.S.q C@n@f@*.|@a.H@6@*#U d@I+E.S+h@W Z+V =#*.C+d+j.|+_.I j+{@@@9.6 -#C+`+;#O.P ",
"u+a+U '@*.:@F.^@*.C+@+B+S+W+>#+#Y 1@1@f@*.8@S@d d ^.c C+|@'@S -@S+L+u+u+2.m+8.A.m+B+V ^@B+E.h@##2+V.x+x+> $+C.j+D.~+,#'@]+@+#+9.",
"d@d@A@-@'#>@>@^.)#1@H+*.p +#r@'#>@Z+S.Z+:@*.*.*.>@=.E.U 6@!#T U u+B+.+m+7.9.A.! D.s@h@c 7.m+O.a.@#q c+i {.&@:+C.8.^@W l.! 6.#+#+",
"t@u+d@6@'@'#8@`+~#M+X@2@m@m@{#S@'@S@m@f@*.Z+]#'@>@q P.8 a+H@E.S+d@U+B+m+@+9.,+1+s@s@I+^@1 k.7. @P.n+S O+[ ; L D 2+G.Q.V.6._._.:.",
"d@d@l@A@^#'@]#f@~#~#/#f@'@Z+]#'@'@'#(#{#'@|@|@'@*.8 U+2.0.H@L+d@d@A@d@u+L+p@2.1+b@m+E.d r '+$@1+9./+n+n.a+M.j@c+_#:@Q 5 5 :+%+:.",
"U u+u+u+H@i@q 2@:#X@`+S@q q ]#S@'@S@'#]#-@|@-@*.`+E.E.v@-@|@H@U U A@6@q I+U u@7.A.U+C+<#3+0+ @[# @A.B+d.n+i@n+G.4.L.M _+}#(@5 _.",
"u+L+|#u+1#q 2+p+p+m@f@'#'@q '@|@q |@'#'@2#'@*.H.Y -@q |@'@^.H@U U U !#W@q S.U .@.+U+9@o+P@/+/+/+.@m+1.2 l.o+  3#+#4#5#6#y y }#K+",
"t@L+L+d@W@q '#7#f@m@f@'#q q 2+q q |@]#m@'#{#q+:#Y |@W@-@'@6@E.U E.A@T 6@q 8#i@S+0.8 n+c g+@+2 <+8 2.8.a =@^@P@9#Y &+&+W.0#a#y u.",
"W@H@A@U 6@a.p+Z m@]#f@{#'@q q 2+q S@f@`+f@f@X@M+W H@U H@6@H@U E.d@d@U H@C+L+S+d@w+q I+0+U V._.j+g@U+8 ~+8.~+U.n+d o+g b#g+e+c#d#",
"q H@H@U 2+'@7#7#'#'#{#f@f@'@'#'@]#f@e#5+f@f#G.Z |@C+E.H@v@E.d@U+L+d@A@U A@D.A.8.a+0.a+t+&#d+5 ].O 2.C+F.d.0+O.]+I+g+g#h#g#4+H.e ",
"E.t@t@E.2+i#Z i@'@'#{#f@f@2@f@f@f@f#{#{#'#f@G.f@2+E.E.S+P.8 L+8.B+U+t@L@d@D.7.D.A.8.U+a.+@e+<@_+y.@+E.U.P.]+~+6 6 ~+7 W j#k#h#l#",
"H+H+S+H+^@m#e#a.2+n@'#5+n#n#5+{#'#m@S@S@'@>@G.-@I+P.E.U 7@O+B+9+1.k.p@o#l.9+k.p#q#v+O.7 X@&+d+x+) /+b+0+G@S+I+d./+b P.c ]+U.F &+",
"r#r#m#s#t#u#-@I+2+S@{#5+f#f#{#{#]#]#S@'#f@G.B.I+U.P.C+^.*.^@V C+a.c 8@)#~#v#w#Z G.4+B.&.x#  y#z#]+7@8.k.Q 8.P.7@P.O.6+T.A#2 O.d.",
"B#C#~#D#:#u#2+w+i@S@{#{#{#{#'#{#'#f@{#'#2@  ~#G.q++#{ X@$#  B.9#&+2@&+:#E#x#3#F#G#H#Y h H.Z I#J#e+T.$@P :.P ! D.8 P.0.H+v+s+) D ",
"s#u#u#B.s#r#'@C+2+i@'#S@{#'#{#(#(#f@'#'@m@H.&.G.`++#G.$#Y $#{ Y `+^.8@Y { r@>@o+>@`+&+&+r@X@^+K#o.P.8.P.2 H _.P k.P.l.7@~+V.].j.",
"7#u#u#s#u#r#:@2+w+'@'#{#f#f#f#p+2@{#'@S@f@t#r+{ f#q+&.X@X@$#2@2@*.S.^.L#^.*.q q i@'@Z+W &+p+~ K#M#,+8.P.8 8 1.D P k.P.d.d.N+P P ",
"n#N#O#s#u#B#m@S.i@P#Q#n#q+(#f#n#5+{#i@'#f@~#t#G.f@q+7#2@f@*.^.S@a.W@q q W@s.A@L+u+|#T |@P@G.o+}@y.}.N+@+k.P.S+P.~+P ! N+N+2 1.1."};
