/* XPM */
static char * rondoudouleftback_xpm[] = {
"64 64 427 2",
"  	c None",
". 	c #F9D9F0",
"+ 	c #F5D2E8",
"@ 	c #F2CEE5",
"# 	c #F1CFE7",
"$ 	c #F5D3EA",
"% 	c #F2D0E6",
"& 	c #F5D2EA",
"* 	c #ECC8DE",
"= 	c #F1CDE4",
"- 	c #F3D0E7",
"; 	c #EFCDE4",
"> 	c #F4D1E9",
", 	c #F3D0E6",
"' 	c #F3D0E8",
") 	c #F1CEE6",
"! 	c #F1CDE5",
"~ 	c #F2CFE7",
"{ 	c #E8C7DE",
"] 	c #EDCBE1",
"^ 	c #EECBE2",
"/ 	c #EFCCE2",
"( 	c #EECCE1",
"_ 	c #ECCADF",
": 	c #F5D3EB",
"< 	c #E7C6DD",
"[ 	c #EDC9E0",
"} 	c #F0CDE4",
"| 	c #F4D0E9",
"1 	c #FADAF3",
"2 	c #F0CDE5",
"3 	c #F1CEE5",
"4 	c #EAC8E0",
"5 	c #F6D1E9",
"6 	c #E8C4DA",
"7 	c #ECC8DF",
"8 	c #F6D4EC",
"9 	c #F8D5ED",
"0 	c #F9D6EE",
"a 	c #F8D6EE",
"b 	c #F7D4EC",
"c 	c #F0CCE3",
"d 	c #EBC8DD",
"e 	c #EAC6DC",
"f 	c #F0CEE5",
"g 	c #F0CCE4",
"h 	c #ECCAE1",
"i 	c #F5D1E9",
"j 	c #E9C4DA",
"k 	c #EECAE1",
"l 	c #F3CFE7",
"m 	c #F6D3EB",
"n 	c #FBD8F0",
"o 	c #FCD9F2",
"p 	c #FDDAF2",
"q 	c #FBD9F1",
"r 	c #EFCBE2",
"s 	c #EFCCE4",
"t 	c #F5D1E8",
"u 	c #E4BFD3",
"v 	c #EFCAE1",
"w 	c #F3CFE6",
"x 	c #F9D5ED",
"y 	c #F9D6ED",
"z 	c #FBD9F2",
"A 	c #FCDAF2",
"B 	c #FAD7EF",
"C 	c #F6D3EA",
"D 	c #F2CFE6",
"E 	c #E4BDD2",
"F 	c #E8C2D8",
"G 	c #EDC8DF",
"H 	c #F4D0E8",
"I 	c #F4D0E7",
"J 	c #F5D2E9",
"K 	c #F4D1E8",
"L 	c #F3CEE6",
"M 	c #F2CDE4",
"N 	c #F2CEE6",
"O 	c #ECC9E1",
"P 	c #F4CFE6",
"Q 	c #E9C6DB",
"R 	c #E7C2D8",
"S 	c #E1B9CF",
"T 	c #E8C1D7",
"U 	c #F0CBE1",
"V 	c #E9C6DC",
"W 	c #ECC9E0",
"X 	c #F4D2EA",
"Y 	c #EECAE2",
"Z 	c #EAC5DC",
"` 	c #E6C0D6",
" .	c #E2BBD1",
"..	c #EEC9DF",
"+.	c #F6D2E9",
"@.	c #EFCBE3",
"#.	c #EEC9E0",
"$.	c #EBC6DC",
"%.	c #E6C1D6",
"&.	c #E3BDD3",
"*.	c #E5C1D6",
"=.	c #EBC7DE",
"-.	c #EDCAE1",
";.	c #EDC9DF",
">.	c #EBC6DD",
",.	c #E8C3D9",
"'.	c #ECC9DE",
").	c #E4BED4",
"!.	c #E1BACF",
"~.	c #E0BACF",
"{.	c #E2BCD1",
"].	c #EDC8DE",
"^.	c #EECAE0",
"/.	c #EFCBE1",
"(.	c #EECBE1",
"_.	c #F8D4ED",
":.	c #F7D3EB",
"<.	c #E3C0D5",
"[.	c #ECC7DC",
"}.	c #E5BFD5",
"|.	c #EFCCE3",
"1.	c #F8D4EC",
"2.	c #E8C3DA",
"3.	c #E5C0D5",
"4.	c #E7C2D6",
"5.	c #E5C0D6",
"6.	c #E0B9CE",
"7.	c #E2BBD0",
"8.	c #E7C2D7",
"9.	c #ECC7DD",
"0.	c #F4D2E8",
"a.	c #F0CFE5",
"b.	c #ECC5DB",
"c.	c #DEB9CE",
"d.	c #E3BCD1",
"e.	c #EBC7DD",
"f.	c #F3CEE5",
"g.	c #F3CFE5",
"h.	c #F0D0E4",
"i.	c #EEC8DF",
"j.	c #DBB7CC",
"k.	c #E4BED3",
"l.	c #F0CCE2",
"m.	c #F4D0E6",
"n.	c #F1CFE5",
"o.	c #EFCDE3",
"p.	c #EAC5DB",
"q.	c #E4BDD1",
"r.	c #EFCAE0",
"s.	c #DAB6CB",
"t.	c #E5BED4",
"u.	c #ECC6DD",
"v.	c #EDC7DE",
"w.	c #EFC9E0",
"x.	c #F1CBE2",
"y.	c #F3CDE4",
"z.	c #F4D1E7",
"A.	c #E7C1D7",
"B.	c #E4BCD2",
"C.	c #EBC5DB",
"D.	c #EDC7DD",
"E.	c #F1CCE2",
"F.	c #F4D2E9",
"G.	c #F4D3E9",
"H.	c #F3D3E8",
"I.	c #F2D0E5",
"J.	c #EECBE0",
"K.	c #E8C2D9",
"L.	c #E3BFD3",
"M.	c #E3BBD0",
"N.	c #E0BBD0",
"O.	c #E3BFD4",
"P.	c #E9C4DB",
"Q.	c #F6D3E9",
"R.	c #F3D2E7",
"S.	c #EFCEE3",
"T.	c #EDCBE0",
"U.	c #EBC9DC",
"V.	c #E9C2D9",
"W.	c #E1BACE",
"X.	c #E6C0D5",
"Y.	c #E9C3D9",
"Z.	c #EAC4DB",
"`.	c #ECC7DE",
" +	c #F6D2EA",
".+	c #F3D1E7",
"++	c #F1CFE4",
"@+	c #EFCEE1",
"#+	c #ECCADE",
"$+	c #ECCBDF",
"%+	c #DFB7CD",
"&+	c #E4BDD3",
"*+	c #E1BBD0",
"=+	c #EBC5DC",
"-+	c #EDC6DD",
";+	c #F5D1E7",
">+	c #EECDE0",
",+	c #EAC8DC",
"'+	c #E9C7DB",
")+	c #E0BCD0",
"!+	c #DCB4CA",
"~+	c #EAC4DA",
"{+	c #F5D0E7",
"]+	c #F6D1E8",
"^+	c #F2CFE5",
"/+	c #F0CEE3",
"(+	c #EECCE0",
"_+	c #EBC9DD",
":+	c #E6C4D8",
"<+	c #E6C0D7",
"[+	c #E3BCD2",
"}+	c #E0BCCF",
"|+	c #DFB8CD",
"1+	c #E5BED5",
"2+	c #E6BFD6",
"3+	c #E8C2D7",
"4+	c #F0CAE1",
"5+	c #F1CCE3",
"6+	c #F5D0E8",
"7+	c #F6D2E8",
"8+	c #F2CCE2",
"9+	c #F1CDE3",
"0+	c #E7C5D9",
"a+	c #E5BED3",
"b+	c #E7C0D5",
"c+	c #E8C1D6",
"d+	c #E9C3D8",
"e+	c #ECC6DC",
"f+	c #EFC9DF",
"g+	c #F2CDE3",
"h+	c #F4CEE5",
"i+	c #EEC8DE",
"j+	c #EDCADF",
"k+	c #EAC7DC",
"l+	c #E2BDD2",
"m+	c #E2BCD2",
"n+	c #DEB7CB",
"o+	c #E6BFD4",
"p+	c #E7C1D6",
"q+	c #F1CBE1",
"r+	c #F4CFE5",
"s+	c #F4CEE4",
"t+	c #EDC7DC",
"u+	c #E3BED3",
"v+	c #E9C6DD",
"w+	c #F6D5ED",
"x+	c #DEB5CA",
"y+	c #E0B8CD",
"z+	c #E2BAD0",
"A+	c #E5BFD4",
"B+	c #EAC3DA",
"C+	c #EDC6DC",
"D+	c #F2CCE3",
"E+	c #F3CCE3",
"F+	c #F2CBE2",
"G+	c #EAC5DA",
"H+	c #E8C4D9",
"I+	c #E6C2D7",
"J+	c #EECCE2",
"K+	c #F1D1E8",
"L+	c #F7D6ED",
"M+	c #DDB5C9",
"N+	c #DFB6CB",
"O+	c #EAC3D9",
"P+	c #EBC4DA",
"Q+	c #F0CBE2",
"R+	c #F0C9E0",
"S+	c #F0CAE0",
"T+	c #E8C3D8",
"U+	c #EFCCE1",
"V+	c #E9C3DA",
"W+	c #DBB4C8",
"X+	c #E1B9CE",
"Y+	c #E9C2D7",
"Z+	c #EFC8DE",
"`+	c #EEC7DE",
" @	c #EFC8DF",
".@	c #E9C2D8",
"+@	c #DDB3C8",
"@@	c #E1B8CD",
"#@	c #EEC7DD",
"$@	c #DCB3C7",
"%@	c #DDB4C9",
"&@	c #E2BACF",
"*@	c #E3BDD2",
"=@	c #ECC5DC",
"-@	c #EDC5DC",
";@	c #E7C0D6",
">@	c #DEB6CA",
",@	c #DCB3C8",
"'@	c #DCB5CA",
")@	c #E6BFD5",
"!@	c #EBC4DB",
"~@	c #ECC4DB",
"{@	c #EBC3D9",
"]@	c #ECC4DA",
"^@	c #EDC5DB",
"/@	c #DBB2C6",
"(@	c #D7A8C0",
"_@	c #D9AFC4",
":@	c #E0B9CF",
"<@	c #EAC2D8",
"[@	c #EBC3DA",
"}@	c #EBC4D9",
"|@	c #E8C0D6",
"1@	c #E7BFD5",
"2@	c #D5A9C0",
"3@	c #DBB1C6",
"4@	c #DBB2C7",
"5@	c #DCB2C8",
"6@	c #DDB5CA",
"7@	c #DEB6CB",
"8@	c #E1BAD0",
"9@	c #E9C1D7",
"0@	c #E6BED4",
"a@	c #E5BDD2",
"b@	c #E3BBD1",
"c@	c #DFB7CC",
"d@	c #DCB2C6",
"e@	c #D7A6BF",
"f@	c #DBB1C7",
"g@	c #DDB3C9",
"h@	c #E4BDD4",
"i@	c #E7BFD4",
"j@	c #E4BCD1",
"k@	c #E5BDD3",
"l@	c #DDB4C8",
"m@	c #DBB2C5",
"n@	c #D7A7BF",
"o@	c #D7ABC2",
"p@	c #DAAFC5",
"q@	c #E2B9CE",
"r@	c #DEB4C9",
"s@	c #DCB1C5",
"t@	c #E4BBD1",
"u@	c #E2B9CF",
"v@	c #E0B7CC",
"w@	c #DCB2C7",
"x@	c #DBB1C5",
"y@	c #E0B7CD",
"z@	c #D9AEC3",
"A@	c #D6ACC2",
"B@	c #D9AEC5",
"C@	c #DAB0C8",
"D@	c #DAB0C4",
"E@	c #D4A8BF",
"F@	c #D5AAC1",
"G@	c #D8ADC5",
"H@	c #DAB1C9",
"I@	c #D9AEC6",
"J@	c #D8AFC6",
"K@	c #D8AEC5",
"L@	c #E0B8CE",
"M@	c #DDB3C7",
"N@	c #DCB1C6",
"O@	c #DBB0C5",
"P@	c #DBB0C4",
"Q@	c #D9AEC2",
"R@	c #D6ABC1",
"S@	c #D1A6BD",
"T@	c #D2A6BD",
"U@	c #D8AFC7",
"V@	c #DBB1C9",
"W@	c #E1BAD2",
"X@	c #D9B0C7",
"Y@	c #D7ADC5",
"Z@	c #D5AAC2",
"`@	c #DAB0C7",
" #	c #DFB6CA",
".#	c #DAAFC4",
"+#	c #DBAFC4",
"@#	c #DBAFC3",
"##	c #DAAFC3",
"$#	c #D8ACC1",
"%#	c #D3A8BD",
"&#	c #D0A3BA",
"*#	c #CDA1B7",
"=#	c #CEA2B8",
"-#	c #D2A5BC",
";#	c #E0B9D2",
">#	c #E9C4DD",
",#	c #DBB3CA",
"'#	c #DCB3CB",
")#	c #D9B0C8",
"!#	c #D4A9C1",
"~#	c #D3A9C1",
"{#	c #D1A5BD",
"]#	c #DAB0C5",
"^#	c #D9B0C4",
"/#	c #D7ADC0",
"(#	c #CA9EB2",
"_#	c #C496AC",
":#	c #C598AE",
"<#	c #C89BB1",
"[#	c #CA9DB3",
"}#	c #CEA1B9",
"|#	c #DFB5CE",
"1#	c #DFB8D0",
"2#	c #DDB5CD",
"3#	c #D5ABC2",
"4#	c #D2A7BF",
"5#	c #D0A5BD",
"6#	c #CEA2BA",
"7#	c #C89CB3",
"8#	c #C99DB4",
"9#	c #CCA0B6",
"0#	c #CFA3B7",
"a#	c #D5ABBF",
"b#	c #D8AFC2",
"c#	c #D8AEC1",
"d#	c #D8AFC3",
"e#	c #BD90A5",
"f#	c #C194A9",
"g#	c #C498AD",
"h#	c #E5BED7",
"i#	c #DFB6CF",
"j#	c #CFA5BC",
"k#	c #CEA3BA",
"l#	c #CA9FB5",
"m#	c #C79BB1",
"n#	c #C59AAE",
"o#	c #C59BAD",
"p#	c #C59AAD",
"q#	c #DEB4CC",
"r#	c #CFA4BB",
"s#	c #C89CB0",
"t#	c #C69DAF",
"                                                                                                                                ",
"                                                                                                                                ",
"                                                                                                                                ",
"                                                                                                                                ",
"                                                                                                                                ",
"                                                                                                                                ",
"                                                                                                                                ",
"                                                                                                                                ",
"                                                                                                                                ",
"                                                                                                                                ",
"                                                                                                                                ",
"                                                                                                                                ",
"                                                                                                                                ",
"                                                                                                                                ",
"                                                                                              . .                               ",
"                                                                                          + @ # $ +                             ",
"                                                                                      % & * = - ; >                             ",
"                                                                                    , ' ) ! ~ ' ) {                             ",
"                                                            ] ^ / ( _             : & ~ ' ' ~ ~ ~ < ,                           ",
"                                                        [ } ~ | > ' ) ^ *       & 1 2 ' ' ~ - ~ 3 4 5                           ",
"                                                    6 7 = > 8 9 0 a b > c d e } a f ~ ' ~ g ' ~ ) h i                           ",
"                                                    j k l m 0 n o p q 0 > r e k ! ) ' ' 3 2 ~ ~ - s t                           ",
"                                                  u j v w m x y 0 z A B C l k v 2 D ~ ' l ~ ~ l ' s i                           ",
"                                                  E F G @ H t I I J : J K w L M ~ N 3 ~ l ~ c ~ ~ O P                           ",
"                                              Q R S T U @ w w w I i J & J I w N w N r 3 ) k V ~ N W =                           ",
"                          ] D X : 8 & ) Y r 7 Z `  ...w w @ @ w - I K > +.+.@ L @ > N ; } O @.~ 7 ^ #.                          ",
"                      j $.%.&.*.=.-.! ~ = r Y Y ;.=.M N @ @ w w w w - I H I w w H J i H l N 3 ~ >.G ,.                          ",
"                  '.).!.~.{.j ].^.k r /.(.r c N ~ ~ D l w w w w w w w - w w w w I & b _.:.H 3 } >.F <.                          ",
"                  [.{.!.!.}.* ;.;.;.;.;.;.;.;.|.} 3 @ l w w w w w w w w w w w l - J m 1.m ' 3 } 7 2.3.                          ",
"                  4.5.6.!.7.8.9.;.;.;.;.* ;.;.k c = = l w w w w w w w w w w w w I i J C m 0.a.N r $.8.                          ",
"                    b.c.!.!.!.d.8.e.;.;.* ;.;.v f.@ g.I I w w w w w w w w w w w I I K i C K , h.(.G ,.*.                        ",
"                      i.j.!.!.!.!.k.j 9.;.;.;.l.M P m.w w w w f.w w w w w w w w w w w K t - w n.o.;.p.`                         ",
"                      q.r.s.!.!.!.!.7.t.,.9.u.v.w.x.y.f.w w w w w w w w w - w I I t i H J K z.- D / u.A.                        ",
"                        B.C.!.!.!.!.!.!.d.j $.D...U E.M f.w - I I w w w K I - J J +.J t $ F.G.H.I.J.e K.L.                      ",
"                          M.` !.!.!.!.~.N.O.R P.>.].U = M @ w I - w I I J t K +.+.t J t Q.F.R.h.S.T.U.V.).                      ",
"                            W.X.7.!.!.!.7.X.Y.Z.`.#.r l.M w t t I I t t C & +. ++.t t K 0..+++@+( #+$+F ).                      ",
"                              %+&+*+!.!. .}.R j =+-+w.M P I t t H i J t J J i t t t t ;+z.% S.>+_ ,+'+A.&+)+                    ",
"                                !+6.E  .&+R Y.Y.~+$.i.x.y.{++. +J C +.+.+. +J ]++.t t t g.^+/+(+_+'+:+<+[+}+                    ",
"                                  |+ . .&.1+2+3+F ~+D.4+5+m.6+5 7++ J + m.t t t C t t P 8+U 8+9+T.,+0+R {.6.                    ",
"                                  |+7.7.d.E a+b+c+d+e+f+E.g+h+t t m.{+;+f.{+h+P P {+{+P U f+i+r.U j+k+R l+m+                    ",
"                                  n+S 7. .[+a+o+p+~+e+r.f+w.q+h+g.g.g.g.y.h+y.r+y.s+h+x.4+i+e+t+].].e.*.u+v+# w+F.              ",
"                                  x+y+z+7.d.a+A+T B+D.C+D.f+U @ 9+g+f.E.D+E+D+f.8+D+F+4+i+-+~+Y.j G+$.H+I+J+K+L+g               ",
"                                  M+N+!.!.7.E A+3+~+O+P+b.f+r.k Q+E.8+R+S+q+S+y.q+4+4+i.i+C.d+p+c+T+Y.R [+,.U+! V+              ",
"                                  W+x+6.X+7.a+A+p+p+Y+P+Z+U ].].4+U f+`+ @ @ @D+q+w.w.i.e+C..@o+E a+E !.7.A.~+B+                ",
"                                    +@N+@@7.&+A+E A+T e+].].9.9...f+-+-+v.#@D.U q+i.f+D.e+P+O+o+d.7.!.7.&+t.q.                  ",
"                                    $@%@@@&@[+d.*@o+V+$.e+C.=+e+`...C+b.=@-@b.#@Z+D.#@9.b.~+Y.;@7.!.X+ .!.>@                    ",
"                                    ,@'@6.!.!.7.d.)@` Y.P+j P.P+$.i+b.P+!@~@{@]@^@P+C+C.~+O+T ` 7.X+X+x+/@                      ",
"                                (@_@,@x+y+6.y+:@E &+t.T G+8.2.d+B+e+b.<@O+[@.@O+P+O+}@.@|@1@)@E !.|+%@/@                        ",
"                              2@_@3@4@5@6@N+7@6.8@ .&+;@,.%.<+c+V.B+P+T 9@.@T 9@9@1@T |@0@a@b@S c@+@/@d@                        ",
"                                e@f@5@g@g@7@c@X+&@d.E X.` k.h@o+T 9@.@;@1@T b+1@i@j@a+k@d.&@y+N+l@d@m@                          ",
"                                    n@o@p@,@6@X+*+ .d.*@k.d.8@7.a+0@1@t.0@1@t.k@k@q@&@&@y+N+r@+@d@s@                            ",
"                                          m@N+!.!.!.!.{.7.!.!.!.!.z+7.j@t@b@M.z+u@v@v@x+%@+@w@3@x@                              ",
"                                            N+!.!.!.!.!.!.6.c@6.!.!.!.6.y+y@v@N+x+r@+@,@w@/@x@z@A@B@C@                          ",
"                                                !.!.!.!.!.!.|+>@c@N+c@6@%@%@+@+@w@d@d@3@x@D@z@E@F@G@H@                          ",
"                                            I@J@K@L@!.!.!.!.!.|+M@d@d@d@d@N@3@x@x@O@P@D@Q@R@S@T@U@V@W@                          ",
"                                            X@C@Y@Z@`@g@X+!.6. #O@.#P@P@+#@#########$#%#&#*#=#-#;#>#                            ",
"                                            ,#'#)#!#~#Z@{#]#^#Q@Q@Q@Q@Q@Q@Q@Q@Q@/#(#_#:#<#[#}#|#                                ",
"                                              1#2#3#4#5#6#7#8#9#0#a#b#b#c#d#        e#f#g#9#G@                                  ",
"                                                h#i#!#j#k#l#m#n#o#                      p#                                      ",
"                                                    q#F@r#l#s#t#                                                                ",
"                                                                                                                                ",
"                                                                                                                                ",
"                                                                                                                                ",
"                                                                                                                                "};
