/* XPM */
static char * stairs_xpm[] = {
"64 64 280 2",
"  	c #531ECB",
". 	c #5319CB",
"+ 	c #5310CB",
"@ 	c #542CCD",
"# 	c #531CCB",
"$ 	c #5320CC",
"% 	c #5325CC",
"& 	c #531FCC",
"* 	c #531ACB",
"= 	c #5320CB",
"- 	c #5327CC",
"; 	c #5323CC",
"> 	c #5321CB",
", 	c #5324CB",
"' 	c #5317CA",
") 	c #5324CC",
"! 	c #531FCB",
"~ 	c #531DCB",
"{ 	c #5321CC",
"] 	c #5318CB",
"^ 	c #530ECA",
"/ 	c #531BCB",
"( 	c #5315CB",
"_ 	c #5329CC",
": 	c #5318CA",
"< 	c #5310CA",
"[ 	c #5328CC",
"} 	c #530DCA",
"| 	c #5317CB",
"1 	c #5326CC",
"2 	c #4B29C7",
"3 	c #5328CD",
"4 	c #5323CB",
"5 	c #5319CA",
"6 	c #5329CD",
"7 	c #5322CC",
"8 	c #4B21C6",
"9 	c #4A1EC6",
"0 	c #531BCC",
"a 	c #5318CC",
"b 	c #531DCC",
"c 	c #531ACC",
"d 	c #5324CD",
"e 	c #5313CC",
"f 	c #5321CD",
"g 	c #5323CD",
"h 	c #531ECC",
"i 	c #5316CC",
"j 	c #5426CD",
"k 	c #5316CB",
"l 	c #5325CD",
"m 	c #531CCC",
"n 	c #4A20C6",
"o 	c #5314CB",
"p 	c #3A2E7F",
"q 	c #392E7D",
"r 	c #392E7E",
"s 	c #3D337E",
"t 	c #40377F",
"u 	c #3F367F",
"v 	c #3D337F",
"w 	c #392E7F",
"x 	c #3A2F7F",
"y 	c #3A307E",
"z 	c #3C327D",
"A 	c #40367F",
"B 	c #423980",
"C 	c #3F357F",
"D 	c #3E357E",
"E 	c #41387F",
"F 	c #3E347E",
"G 	c #3F357E",
"H 	c #413880",
"I 	c #423A80",
"J 	c #453C81",
"K 	c #3A347D",
"L 	c #39317C",
"M 	c #39327D",
"N 	c #3D3580",
"O 	c #3C317F",
"P 	c #3E347F",
"Q 	c #443C81",
"R 	c #433A80",
"S 	c #3F367E",
"T 	c #42397F",
"U 	c #433B80",
"V 	c #443B80",
"W 	c #463D81",
"X 	c #39317D",
"Y 	c #39347D",
"Z 	c #39337D",
"` 	c #413881",
" .	c #5522CB",
"..	c #551BCB",
"+.	c #541DCB",
"@.	c #3C327F",
"#.	c #3B317D",
"$.	c #3D347E",
"%.	c #3C357F",
"&.	c #541BCB",
"*.	c #5421CB",
"=.	c #5411CA",
"-.	c #423881",
";.	c #3A2F7D",
">.	c #3A327D",
",.	c #3E367E",
"'.	c #3A347F",
").	c #5429CD",
"!.	c #5416CA",
"~.	c #5413CA",
"{.	c #541ECB",
"].	c #3A2F7E",
"^.	c #3C327E",
"/.	c #3A357F",
"(.	c #551CCB",
"_.	c #5425CC",
":.	c #541CCB",
"<.	c #541FCB",
"[.	c #3B317E",
"}.	c #3A337D",
"|.	c #3D367E",
"1.	c #3B377F",
"2.	c #530FCA",
"3.	c #551FCB",
"4.	c #5422CB",
"5.	c #5420CB",
"6.	c #392F7D",
"7.	c #3C337D",
"8.	c #3D357E",
"9.	c #3A347E",
"0.	c #542DCD",
"a.	c #5428CC",
"b.	c #39357D",
"c.	c #3A337E",
"d.	c #5322CB",
"e.	c #532CCD",
"f.	c #5423CB",
"g.	c #3A2E7E",
"h.	c #41377F",
"i.	c #392F7F",
"j.	c #5429CC",
"k.	c #542CCC",
"l.	c #5423CC",
"m.	c #2F1E8F",
"n.	c #2F1E90",
"o.	c #5314CA",
"p.	c #5316CA",
"q.	c #403195",
"r.	c #3B327D",
"s.	c #392F7E",
"t.	c #5315CA",
"u.	c #5425CB",
"v.	c #542DCC",
"w.	c #3F377F",
"x.	c #3D347F",
"y.	c #3A327E",
"z.	c #531BCA",
"A.	c #542FCD",
"B.	c #3E2F90",
"C.	c #453D81",
"D.	c #3D337D",
"E.	c #39357E",
"F.	c #39367E",
"G.	c #5326CB",
"H.	c #531ACA",
"I.	c #403780",
"J.	c #532BCC",
"K.	c #5312CA",
"L.	c #39307C",
"M.	c #542ACC",
"N.	c #531CCA",
"O.	c #3B367F",
"P.	c #5325CB",
"Q.	c #5427CC",
"R.	c #3C347E",
"S.	c #3C357E",
"T.	c #3B337F",
"U.	c #5313CA",
"V.	c #392E7C",
"W.	c #423A81",
"X.	c #5327CB",
"Y.	c #473F82",
"Z.	c #433B82",
"`.	c #3E2F91",
" +	c #484082",
".+	c #423981",
"++	c #403196",
"@+	c #3F3680",
"#+	c #3C347D",
"$+	c #3A357E",
"%+	c #3F387F",
"&+	c #531DCA",
"*+	c #532ACC",
"=+	c #531ECA",
"-+	c #41397F",
";+	c #39327C",
">+	c #542ACD",
",+	c #3B347D",
"'+	c #403680",
")+	c #5313CB",
"!+	c #3C337F",
"~+	c #281F80",
"{+	c #3E377F",
"]+	c #3C317D",
"^+	c #3A307D",
"/+	c #3A317E",
"(+	c #2F2481",
"_+	c #433982",
":+	c #3B337D",
"<+	c #3D357F",
"[+	c #302582",
"}+	c #3D2F8F",
"|+	c #433A82",
"1+	c #5312CB",
"2+	c #3A337F",
"3+	c #3B347E",
"4+	c #3A367F",
"5+	c #530DCB",
"6+	c #2F1E91",
"7+	c #2C2175",
"8+	c #302583",
"9+	c #3D2F90",
"0+	c #3C2D8C",
"a+	c #5327CD",
"b+	c #2F1F91",
"c+	c #3E2F92",
"d+	c #281F81",
"e+	c #403197",
"f+	c #3D327F",
"g+	c #3A327F",
"h+	c #3A3380",
"i+	c #5326CD",
"j+	c #2F2090",
"k+	c #3F3296",
"l+	c #2C2174",
"m+	c #30257E",
"n+	c #33248B",
"o+	c #2F1F90",
"p+	c #3F3196",
"q+	c #30257D",
"r+	c #33248C",
"s+	c #30257F",
"t+	c #3C2D8D",
"u+	c #2F1F8F",
"v+	c #2C2173",
"w+	c #3D2F8E",
"x+	c #5311CA",
"y+	c #302581",
"z+	c #33248A",
"A+	c #3F3395",
"B+	c #30257C",
"C+	c #3D308F",
"D+	c #2E2581",
"E+	c #2B2071",
"F+	c #2E2580",
"G+	c #291F6F",
"H+	c #2A2070",
"I+	c #2A2071",
"J+	c #2E247C",
"K+	c #2E2481",
"L+	c #32238C",
"M+	c #2A2072",
"N+	c #2E247D",
"O+	c #2E2483",
"P+	c #32238D",
"Q+	c #2A2073",
"R+	c #2F2482",
"S+	c #32238B",
"T+	c #2E247B",
"U+	c #2E2480",
"V+	c #2D2480",
"W+	c #2F208F",
"X+	c #4A1EC5",
"Y+	c #4A15C4",
"Z+	c #4B2CC7",
"`+	c #532ACD",
" @	c #4A1CC5",
".@	c #542ECD",
"+@	c #532CCC",
"@@	c #5430CD",
"  . + @ . # $ # . $ % # @ & * =   . - ; % = =   > , ' = = > . . > ) ; ! ~ # ; # { . + @ ]   . + @ . # $ # . $ % # @ & * =   . - ",
"  ^ / - { - & # ! ! { ~ / (   )   ! - _ / % / ~ ~ * ' = # % /   : ~ > < # # # [   } / [ $   ^ / - { - & # ! ! { ~ / (   )   ! - ",
"> | 1 2 % ; ] ) * { { ~   $ 3 { ( % { ; # % . * =   = ) > 4 5 : # ! > # , = ; % > | 1 6 7 > | 1 6 % ; ] ) * { { ~   $ 3 8 ( % { ",
"; # 1 % 9 & 0 { a b c c c d & e & f g & h & i 0 h h j b b 7 k | h % | 7 $ ) * & ) * l ) c 7 c l ; m & 0 { a b c c c d n o $ 7 % ",
"= * / ! $ p q r s t u u t r r v r r w x v w y z s A B C r q q A D t E u F u t A u D G t C H B I I J H K L M M M M M N b . % & b ",
"4 /   > 1 O q t E F E t E r r v v w t t P w z F E E r r r r q B Q R S D A E T S t U B E A E U V E W E B X Y M L Z M ` ) { + . 7 ",
" ...+.[ ~ p q q r r E r r s r R t w P @.@.t B B C w #.r r E R U t T B t E E S S E t R E R Q E t R R L X M M E M T $.%.) . . l 0 ",
"&.+.*.+.=.-.q ;.q q s T r r r E r w w w w E B w w w w w P B t S t E B T E E E t S A A B E R T E S T B M X >.M R ,.M '.) . ).. b ",
"!.&.*.~.{.p E F R ].^.r r r s r r E w w B B w w w w v v E B t t t t B I T T T G S t E A E t E E S t T B E Y Z Z M M /.@ ] ] k 3 ",
"(._.*.:.<.p q R T q q q z r r r E E E T w [.w w @.t t t A A A B E A E E t E E E Q V q t t t E T B G E B }.Y |.>.M T 1.  2.# - ) ",
"3._.*.4.5.p s t q 6.z q q q q r V E E r ].[.x w E R E S E F G R B S E S E Q B E E U t q F ;.^.q E T Y Y Z Z ,.7.8.Z 9.! ] % 0.# ",
":.a.*.4.*.p B t q z z q z q q E R s y r r v w w w @.w E E B t t E U E E R B T E E q q B q q q B E t R Z B }.M q M b.c.d.; e.[ * ",
"5.4.!.f._.g.q q u h.u q q q q q q r z ].E B E w i.^.E B w P I t I T B B R Q E q q t G q q q t V R T M Y B L L q #.}.` ~ * > k   ",
"j.a.&.k.l.m.m.m.m.m.m.m.m.m.m.m.n.q q r r E E r w w P C x w w B t I R T t R A t E ;.B E z E B W B B R Z X L M Z M M c.1 5 # o.! ",
"f.p.5.4.:.m.q.q.q.q.q.q.q.q.q.q.m.q q q ^.r r E R t E w w P E t I V V R B t E S B ^.q R t R R B t U R B B r.M L Z ,.'.  = % % 1 ",
"> ~ # f.<.m.q.q.q.q.q.q.q.q.q.q.m.q G q q q C F T E s.r r T t w B R U R B R D S T E q F t T V B t R Z M I M M M M ,.'.t.= 2.t.! ",
"_.u.a.v.{.m.q.q.q.q.q.q.q.q.q.q.m.h.q q q q q E r r E s r E r P r r B S t V E S R R ^.^.q q R E R R M Z b.L >.M Z w.x.5 # ' > = ",
"a.a.5.5.:.m.q.q.q.q.q.q.q.q.q.q.m.q G q q s q z q F E C C r r r r r r E G U V E E B ^.E E q E B M B L X Z M z Y M Z y.! 5 z.  4 ",
"A.4 f.4.: m.q.q.q.q.B.B.B.B.q.q.m.q q q q q q q F t E E E r s r r r T E S A C.B E E G t B I ,.Z }.L D.E E.M M Y F.B `     = G.4 ",
"H.    H.# m.q.q.q.B.B.B.B.B.B.q.m.q q q q q t F q B t E F r r r E C E G E E A S B E q t t U I E L M Z Z Z M Z M B G I.> J.  = = ",
"# ~ ' K.p.m.q.q.B.B.B.B.B.B.B.q.m.q q z q ;.q q E S D T q q q E r r B T z t E E q ;.q C.R F T E D L.M }.M ,.L L L B `   4 } ~ % ",
"! ! ~ M.j.m.q.q.B.B.B.B.B.B.B.q.m.m.m.m.m.m.m.m.m.m.m.m.m.I.F q q q q q q E E F E G B Q R t E M b.B M U M B M X M I c._ # p.  d.",
"N., 1 j.z.m.q.q.B.B.B.B.B.B.B.q.m.q.q.q.q.q.q.q.q.q.q.q.m.r q q q E ^.q C q q q B B R R B B E Y R T U M }.R C.,.}.Z O.P.t.z.# > ",
"/ Q.!   N.m.q.q.B.B.B.B.B.B.B.q.m.q.q.q.q.q.q.q.q.q.q.q.m.r q F B G t ;.E ^.q q q E B E T B Y R.R 8.Y X B R B M Z Y y.  5 5 ! > ",
"> N.= > N.m.q.q.B.B.B.B.B.B.B.q.m.q.q.q.q.q.q.q.q.q.q.q.m.r q q E E E T q q z q q q q R E B B M q q S.w.W E D.I M M T.! U.! ~ ~ ",
"~ = ! ! N.m.q.q.B.B.B.B.B.B.B.q.m.q.q.q.q.q.q.q.q.q.q.q.m.q z V.F V.B U E q q q z q T I q R B M q s V Q D t I T M M W./ = k.~ J.",
"N.X.> ! ' m.q.q.B.B.B.B.B.B.B.q.m.q.q.q.q.q.B.B.B.q.q.q.m.q V.z V.V.V.T z q E q q G q q q E t s E Y.E q B B M M M Z Z.> - >     ",
"z.N.N.H.d.m.q.q.`.`.`.`.`.`.`.q.n.q.q.q.q.B.B.B.B.B.q.q.m.q B q q q E #.q E B q T q q q q q q q  +B q ;.B T Y Z M L .+~ t.. ~ / ",
"z.~ 5   > m.q.q.`.`.`.`.`.`.`.++n.++++q.q.B.B.B.B.B.q.q.m.@+;.q q q q q u s q s u q r.M ;.q q ;.G T q U B R.M L E R I.= 1 % ! ! ",
"  ~ ! ! z.m.q.q.`.`.`.`.`.`.++++n.++++++++`.`.B.B.B.q.q.m.m.m.m.m.m.m.m.m.m.m.m.m.M M #+M M q F q q s U E U 8.Z R t @+# 7 ; ! ! ",
"  j.z.= ~ m.q.q.`.`.`.`.`.`.++++n.++++++`.`.`.`.`.B.q.q.m.q.q.q.q.q.q.q.q.q.q.q.m.$+$.M J D %+M Z q q q T s q >.G D W.# ; #   # ",
"a.d.: d.&+m.q.q.B.B.`.`.`.`.++++n.++++++`.`.`.`.`.`.++q.m.q.q.q.q.q.q.q.q.q.q.q.m.D D V $.Y G L Z q E z M M Z u F t I.> - k . | ",
"*+p.! =+  m.q.q.B.B.B.B.`.++++++n.++++++`.`.`.`.`.`.++++n.q.q.q.B.B.B.q.q.q.q.q.m.L -+M M b.L M M t R ^.F M F }.;+S @+> - ] ! >+",
"N.p.  N., m.q.q.B.B.B.B.B.B.q.q.n.++++++`.`.`.`.`.++++++n.q.q.B.B.B.B.B.q.q.q.q.m.L M M J M L M J q z G q ,+Z L D D.'+! = / 4 )+",
"z.P.~ ! H.m.q.q.B.B.B.B.B.B.q.q.m.q.++++`.`.`.`.`.++++++n.++q.`.B.B.B.B.B.q.q.q.m.D M M D F Y M q q q q B L X M Z Z !+!   5 o.~ ",
"> 4 ! N.> m.~+q.q.B.B.B.B.B.q.q.m.q.q.q.`.`.`.`.`.++++++n.++++`.`.`.B.B.B.q.q.q.m.Z {+s s Z Z D ]+^+D G B M Y L B R .+d.=   - *+",
", 4 =+' _ m.~+q.q.B.B.B.B.B.B.q.m.q.q.q.B.`.`.`.`.++++++n.++++`.`.`.`.`.B.q.q.q.m.m.m.m.m.m.m.m.n.m.m..+B b.M L ,.L /+, H.[ = ' ",
"! ' ^ [ % n.(+q.q.q.B.B.B.B.B.q.m.q.q.q.B.B.`.`.`.++++++n.++++++`.`.`.`.`.`.++++n.q.q.q.q.q.q.q.++++n._+Z :+L.L Z :+<+# > = z.' ",
". . ] . ] n.[+}+}+++`.`.`.`.B.q.m.q.q.q.B.B.`.`.`.++++++n.++++++`.`.`.`.`.`.++++n.++++++`.`.`.++++++n.|+8.8.M Y M Z '.> - >   5 ",
". @ 1+[ $ n.[+[+}+}+`.`.`.`.`.++n.q.q.q.`.`.`.`.`.`.++++n.++++++`.`.`.`.`.`.++++n.++++`.`.`.`.`.++++n.2+Z >.:+3+M M 4+7 # t./ ! ",
"  # 5+0./ 6+7+8+9+}+0+`.`.`.`.++n.~+++++`.`.`.`.`.`.++++n.++++++`.`.`.`.`.++++++n.++++`.`.`.`.`.`.++6+2+M L :+Y ,+E.P k / # ] - ",
"h 5+m a+{ b+7+8+9+9+0+0+c+c+`.++n.d+++++`.`.`.`.`.`.++++n.++++++`.`.`.`.`.++++++n.++++`.`.c+c+c+c+e+6+2+M M M Z M M /+# )     - ",
"{ | l 6 % b+7+8+9+9+9+0+c+c+++++n.d+++++`.`.`.`.`.`.++++n.++++++`.`.`.`.`.++++++6+++++c+c+c+c+c+c+e+6+/+Y B E Z f+g+h+3 { ( % { ",
") 0 i+% b 6+7+8+8+}+}+}+}+++++++n.d+d+++`.`.`.`.`.`.++++n.++++++`.`.`.`.`.++++++6+e+e+e+c+c+c+c+c+e+6+6+6+6+6+6+6+6+j+{ o > 7 % ",
"$ * / { & b+7+[+8+}+}+}+}+}+++++n.d+d+++`.`.`.`.`.`.q.q.n.++++++`.`.`.`.`.`.++++n.++++++c+c+c+c+c+++6+++++++++++++++k+~ | 7 7 ! ",
"  . + @ . n.l+m+[+}+}+}+}+}+}+}+n+d+d+++`.`.`.`.`.`.q.q.m.~+q.q.`.`.`.`.`.`.++++n.++++++`.`.`.`.`.++n.++++++`.`.`.++k+* =   . - ",
"  ^ / - { o+l+m+[+}+}+}+}+}+}+}+n+l+d+d+++`.`.`.`.`.q.q.m.~+q.q.B.B.`.`.`.`.++++n.++++++`.`.`.`.`.++n.++++`.`.`.`.`.p+  )   ! - ",
"> | 1 6 % o+l+q+[+[+}+}+}+}+}+}+n+7+m+[+++`.`.`.`.`.++q.n.~+~+q.q.B.B.B.B.`.`.++n.++++++`.`.`.`.`.++n.++++`.`.`.`.`.k+3 { ( % { ",
"; # 1 %   o+l+q+q+[+}+}+}+}+}+}+r+7+m+[+}+0+0+0+0+`.`.++n.~+~+q.q.B.B.B.B.B.B.q.n.++++++`.`.`.`.`.`.n.++++`.`.`.`.`.k+$ o $ 7 % ",
"= * / ! = o+l+l+q+[+}+}+}+}+}+}+r+7+m+8+}+0+0+0+0+0+0+++n.~+~+q.q.B.B.B.B.B.B.q.m.~+q.q.`.`.`.`.`.`.n.++++`.`.`.`.`.k+b . % & b ",
"4 /   > - o+l+l+q+[+}+}+}+}+}+}+r+7+s+8+9+t+t+t+0+0+0+}+n.d+~+++q.q.B.B.B.B.q.q.m.~+q.q.`.`.`.`.`.`.n.++++`.`.`.`.`.k+) { + . 7 ",
"= . # [ ~ o+l+l+q+[+[+}+}+}+}+}+r+7+m+8+9+9+t+t+t+t+9+}+n+[+d+++++q.q.q.q.q.q.q.m.~+q.q.q.B.B.`.`.`.n.~+++`.`.`.`.`.k+) . . l 0 ",
"5 # = # < u+v+l+q+q+[+}+}+}+}+}+r+7+m+8+8+9+9+9+9+9+9+9+r+[+[+[+}+w+q.q.q.q.q.q.m.~+~+q.q.B.B.B.B.B.n.~+++++`.`.`.++k+) . ).. b ",
"o.5 = x+~ u+v+v+l+q+[+[+}+}+}+}+r+7+m+s+8+9+9+9+9+9+9+9+r+7+[+[+}+}+w+w+q.q.q.q.m.~+~+q.q.q.B.B.B.q.m.~+q.++++++++++k+@ ] ] k 3 ",
"5 4 = z.! u+v+v+v+q+q+y+w+}+}+}+n+7+7+m+8+8+9+9+9+9+9+9+r+7+m+[+}+}+}+w+w+w+w+w+z+y+y+y+w+w+w+q.q.q.m.~+~+q.q.++++++A+  2.# - ) ",
"# 4 = > = u+v+v+v+v+q+q+y+w+}+}+n+l+7+m+m+8+8+9+9+9+9+9+r+7+m+[+[+}+}+w+w+w+w+w+z+B+B+y+w+w+w+w+w+w+z+y+y+y+w+w+w+w+C+! ] % 0.# ",
"H.- = = = u+v+v+v+v+v+q+y+y+y+[+n+l+l+7+m+m+8+8+8+8+8+8+r+7+m+m+[+[+[+[+y+y+y+y+z+v+B+B+y+y+y+y+y+y+z+v+y+y+y+y+y+y+D+d.; e.[ * ",
"  > t.> , u+E+v+v+v+v+B+q+q+y+y+n+l+l+l+l+m+m+8+8+8+8+8+r+7+7+m+m+m+m+[+[+y+y+y+z+v+v+B+B+y+y+y+y+y+z+v+v+y+y+y+y+y+F+~ * > k   ",
"[ - 5 J.d.u+G+H+H+H+H+I+I+J+J+K+L+I+I+M+M+M+N+N+N+O+O+O+P+Q+Q+Q+Q+M+N+N+R+(+(+K+S+I+I+I+T+T+K+K+U+U+S+H+H+H+T+T+T+K+V+1 5 # o.! ",
"d.o.! > z.u+m.m.m.m.m.m.m.m.m.m.m.m.n.n.n.n.n.n.n.6+6+6+6+6+6+6+6+6+n.n.n.n.n.n.m.m.m.m.m.m.m.m.m.m.m.m.m.m.m.m.m.m.W+  = % % 1 ",
"= # z.d.X+4 #   z.    # d.d.t.= 2.t.! * ' / )+~ { & 1 1+/ $ ] m & ( { ! = ~ ~   = # / d.d.= # z.d.  4 #   z.    # d.d.Y+= 2.t.! ",
"4 , - Z+~ # = [ H.H.  = = < 5 # ' > = t.~ * 4 ; - ! * h { `+& . h 3 # ; . % > / ; ) - k.! 4 , - k.~ # = [ H.H.  = = < 5  @' > = ",
"- - ! ! z.' H.= ~ z.,   d.N.! 5 z.  4 N.4 ! * U.) ( * ~ ) % 1+$ a+7 ! o / @ o.] - [ ! !   - - ! ! z.' H.= ~ z.,   d.N.! 5 z.  4 ",
".@d.4 > ' : [ *+! ! G.+@: ~     = G.4 > , P.4 _ 1 ~ ~ # =   ( { ) $   | % ; K.4 @@d.4 > 5 .@d.4 > ' : [ *+! ! G.+@: ~     = G.4 "};
