/* XPM */
static char * stairs2_xpm[] = {
"64 64 192 2",
"  	c #666666",
". 	c #626262",
"+ 	c #161616",
"@ 	c #444444",
"# 	c #222222",
"$ 	c #000000",
"% 	c #494949",
"& 	c #4D4D4D",
"* 	c #2D2D2D",
"= 	c #585858",
"- 	c #555555",
"; 	c #5E5E5E",
"> 	c #171717",
", 	c #3E3E3E",
"' 	c #4C4C4C",
") 	c #4F4F4F",
"! 	c #5A5A5A",
"~ 	c #383838",
"{ 	c #616161",
"] 	c #3D3D3D",
"^ 	c #070707",
"/ 	c #3A355E",
"( 	c #39355C",
"_ 	c #39355D",
": 	c #3D395E",
"< 	c #403D60",
"[ 	c #3F3C60",
"} 	c #3D395F",
"| 	c #39355E",
"1 	c #3A365E",
"2 	c #3A375D",
"3 	c #3C385D",
"4 	c #403C60",
"5 	c #423F61",
"6 	c #3F3B5F",
"7 	c #3E3B5F",
"8 	c #413E60",
"9 	c #3E3A5F",
"0 	c #413E61",
"a 	c #454163",
"b 	c #3C395E",
"c 	c #3A375C",
"d 	c #3A385D",
"e 	c #3E3B60",
"f 	c #3C385E",
"g 	c #444163",
"h 	c #433F62",
"i 	c #3F3C5F",
"j 	c #423E61",
"k 	c #434062",
"l 	c #444062",
"m 	c #464263",
"n 	c #3B395E",
"o 	c #3B395D",
"p 	c #413E62",
"q 	c #4B4B4B",
"r 	c #3C385F",
"s 	c #3B375D",
"t 	c #3D3A5E",
"u 	c #3D3B5F",
"v 	c #606060",
"w 	c #423E62",
"x 	c #3A365D",
"y 	c #3B385D",
"z 	c #3C3A5F",
"A 	c #3B375E",
"B 	c #3E3C60",
"C 	c #575757",
"D 	c #39365D",
"E 	c #3C3A5E",
"F 	c #2F2F2F",
"G 	c #3A355D",
"H 	c #413D60",
"I 	c #312B65",
"J 	c #312B66",
"K 	c #403B6D",
"L 	c #3D3A5F",
"M 	c #3B385E",
"N 	c #3E3869",
"O 	c #454263",
"P 	c #3C3B5F",
"Q 	c #403D61",
"R 	c #3B3B3B",
"S 	c #595959",
"T 	c #3A365C",
"U 	c #424242",
"V 	c #5C5C5C",
"W 	c #343434",
"X 	c #1E1E1E",
"Y 	c #4A4A4A",
"Z 	c #333333",
"` 	c #3C395F",
" .	c #423F62",
"..	c #474464",
"+.	c #434063",
"@.	c #252525",
"#.	c #3E386A",
"$.	c #484565",
"%.	c #403B6E",
"&.	c #111111",
"*.	c #3A385C",
"=.	c #3C3A5D",
"-.	c #3B395C",
";.	c #3A375A",
">.	c #3D3B5D",
",.	c #3D395D",
"'.	c #373737",
").	c #423F60",
"!.	c #393659",
"~.	c #393759",
"{.	c #3A3859",
"].	c #3A395B",
"^.	c #363636",
"/.	c #2C295B",
"(.	c #413E5F",
"_.	c #393857",
":.	c #383654",
"<.	c #3F3D5A",
"[.	c #413E5E",
"}.	c #676767",
"|.	c #3A3857",
"1.	c #383652",
"2.	c #373551",
"3.	c #3C3A56",
"4.	c #393658",
"5.	c #312D5D",
"6.	c #393754",
"7.	c #37354F",
"8.	c #393753",
"9.	c #3B3858",
"0.	c #3E3B5E",
"a.	c #535353",
"b.	c #322E5D",
"c.	c #3D3869",
"d.	c #3C3A5A",
"e.	c #3B3955",
"f.	c #373650",
"g.	c #383650",
"h.	c #3A3858",
"i.	c #393755",
"j.	c #393854",
"k.	c #383756",
"l.	c #39375A",
"m.	c #3D3B5E",
"n.	c #312C67",
"o.	c #2D2954",
"p.	c #322E5E",
"q.	c #3C3666",
"r.	c #39385B",
"s.	c #3B395A",
"t.	c #3C3A5C",
"u.	c #322C67",
"v.	c #3E396B",
"w.	c #2C295C",
"x.	c #3A385B",
"y.	c #322D66",
"z.	c #2D2953",
"A.	c #312E5B",
"B.	c #342F64",
"C.	c #312C66",
"D.	c #565656",
"E.	c #312D5A",
"F.	c #272727",
"G.	c #322E5B",
"H.	c #3C3667",
"I.	c #312C65",
"J.	c #3D3868",
"K.	c #342F63",
"L.	c #403C6D",
"M.	c #312D59",
"N.	c #3E3969",
"O.	c #312E5D",
"P.	c #4E4E4E",
"Q.	c #2C2851",
"R.	c #312D5C",
"S.	c #2A274F",
"T.	c #2B2850",
"U.	c #2B2851",
"V.	c #302C59",
"W.	c #302D5D",
"X.	c #342E64",
"Y.	c #2C2852",
"Z.	c #302C5A",
"`.	c #312D5E",
" +	c #342E65",
".+	c #332E63",
"++	c #302D5C",
"@+	c #322C66",
"#+	c #040404",
"$+	c #3A3A3A",
"%+	c #646464",
"&+	c #3C3C3C",
"                  . + + + + + + + @ @ @ @ @ @ @ # $ $ $ $ $ % % & * * * * * * * = - - - - - - - - - ; ; > , , , , , , , * * * * ",
"                  . + + + + + + + @ @ @ @ @ @ @ # $ $ $ $ $ % % & * * * * * * * # ' ' ' ' ' ' ' ' ' ; ; > , , , , , , , * * * * ",
"                  . + + + + + + + @ @ @ @ @ @ @ # $ $ $ $ $ & & ) $ $ $ $ $ $ $ # ' ' ' ' ' ' ' ' ' ! ! ~ { { { { { { { * * * * ",
"                  . + + + + + + + @ @ @ @ @ @ @ # $ $ $ $ $ @ @ > $ $ $ $ $ $ $ # ' ' ' ' ' ' ' ' ' ' ' ] ^ ^ ^ ^ ^ ^ ^ * * * * ",
"          / ( _ : < [ [ < _ _ } _ _ | 1 } | 2 3 : 4 5 6 _ ( ( 4 7 < 8 [ 9 [ < 4 [ 7 6 < 6 0 5 5 5 a 0 b c d d d d d e ^ * * * * ",
"          f ( < 8 9 8 < 8 _ _ } } | < < 9 | 3 9 8 8 _ _ _ _ ( 5 g h i 7 4 8 j i < k 5 8 4 8 k l 8 m 8 5 2 n d c o d p ^ q q q q ",
"          / ( ( _ _ 8 _ _ : _ h < | 9 r r < 5 5 6 | s _ _ 8 h k < j 5 < 8 8 i i 8 < h 8 h g 8 < h h c 2 d d 8 d j t u ^ v v v v ",
"          w ( x ( ( : j _ _ _ 8 _ | | | | 8 5 | | | | | 9 5 < i < 8 5 j 8 8 8 < i 4 4 5 8 h j 8 i j 5 d 2 y d h i d z ^ v v v v ",
"          / 8 9 h x f _ _ _ : _ _ 8 | | 5 5 | | | | } } 8 5 < < < < 5 5 j j j 6 i < 8 4 8 < 8 8 i < j 5 8 n o o d d z ^ v v v v ",
". . . . . / ( h j ( ( ( 3 _ _ _ 8 8 8 j | A | | r < < < 4 4 4 5 8 4 8 8 < 8 8 8 g l ( < < < 8 j 5 6 8 5 o n 7 y d j B ^ v v v v ",
"* C C C C / : < ( D 3 ( ( ( ( _ l 8 8 _ x A 1 | 8 h 8 i 8 9 6 h 5 i 8 i 8 g 5 8 8 k < ( 9 x f ( 8 j n n o o i b 7 o E ^ v v v v ",
"- F F F F / 5 < ( 3 3 ( 3 ( ( 8 h : 2 _ _ } | | | r | 8 8 5 < < 8 k 8 8 h 5 j 8 8 ( ( 5 ( ( ( 5 8 < h o 5 o d ( d E n ^ v v v v ",
"- F F F F G ( ( [ H [ ( ( ( ( ( ( _ 3 x 8 5 8 | 1 f 8 5 | 9 5 < 5 j 5 5 h g 8 ( ( < 6 ( ( ( < l h j d n 5 c c ( s o p ^ v v v v ",
"- F F F F I I I I I I I I I I I J ( ( _ _ 8 8 _ | | 9 6 1 | | 5 < 5 h j < h 4 < 8 x 5 8 3 8 5 m 5 5 h o 2 c d o d d n ^ v v v v ",
"- F F F F I K K K K K K K K K K I ( ( ( f _ _ 8 h < 8 | | 9 8 < 5 l l h 5 < 8 i 5 f ( h < h h 5 < k h 5 5 3 d c o i z ^ v v v v ",
"- F F F F I K K K K K K K K K K I ( 6 ( ( ( 6 9 j 8 x _ _ j < | 5 h k h 5 h 7 i j 8 ( 9 < j l 5 < h o d 5 d d d d i z $ v v v v ",
"- F F F F I K K K K K K K K K K I H ( ( ( ( ( 8 _ _ 8 : _ 8 _ 9 _ _ 5 i < l 8 i h h f f ( ( h 8 h h d o E c y d o < L $ v v v v ",
"- F F F F I K K K K K K K K K K I ( 6 ( ( : ( 3 ( 9 8 6 6 _ _ _ _ _ _ 8 6 k l 8 8 5 f 8 8 ( 8 5 d 5 c 2 o d 3 n d o M $ v v v v ",
"- F F F F I K K K K N N N N K K I ( ( ( ( ( ( ( 9 < 8 8 8 _ : _ _ _ j 8 i 4 O 5 8 8 6 < 5 5 i o o c : 8 E d d n P 5 p $ v v v v ",
"- F F F F I K K K N N N N N N K I ( ( ( ( ( < 9 ( 5 < 8 9 _ _ _ 8 6 8 6 8 8 4 i 5 8 ( < < k 5 8 c d o o o d o d 5 6 Q $ R R R R ",
"S v . . . I K K N N N N N N N K I ( ( 3 ( x ( ( 8 i 7 j ( ( ( 8 _ _ 5 j 3 < 8 8 ( x ( O h 9 j 8 7 T d o d i c c c 5 p U U U U U ",
"V W X X X I K K N N N N N N N K I I I I I I I I I I I I I Q 9 ( ( ( ( ( ( 8 8 9 8 6 5 g h < 8 d E 5 d k d 5 d 2 d 5 n U U U U U ",
"v Y Z Z Z I K K N N N N N N N K I K K K K K K K K K K K I _ ( ( ( 8 f ( 6 ( ( ( 5 5 h h 5 5 8 n h j k d o h O i o o u U U U U U ",
"v Y Z Z Z I K K N N N N N N N K I K K K K K K K K K K K I _ ( 9 5 6 < x 8 f ( ( ( 8 5 8 j 5 n t h 7 n 2 5 h 5 d o n M U U U U U ",
"v Y Z Z Z I K K N N N N N N N K I K K K K K K K K K K K I _ ( ( 8 8 8 j ( ( 3 ( ( ( ( h 8 5 5 d ( ( u < m 8 : 5 d d ` U U U U U ",
"v Y Z Z Z I K K N N N N N N N K I K K K K K K K K K K K I ( 3 ( 9 ( 5 k 8 ( ( ( 3 ( j 5 ( h 5 d ( : l g 7 < 5 j d d  .U U U U U ",
"v Y Z Z Z I K K N N N N N N N K I K K K K K N N N K K K I ( ( 3 ( ( ( j 3 ( 8 ( ( 6 ( ( ( 8 < : 8 ..8 ( 5 5 d d d o +.U @.@.@.@.",
"v Y Z Z Z I K K #.#.#.#.#.#.#.K J K K K K N N N N N K K I ( 5 ( ( ( 8 s ( 8 5 ( j ( ( ( ( ( ( ( $.5 ( x 5 j n o d c  .U R R R R ",
"v Y Z Z Z I K K #.#.#.#.#.#.#.%.J %.%.K K N N N N N K K I [ x ( ( ( ( ( [ : ( : [ ( 3 d x ( ( x 6 j ( k 5 t d c 8 h Q &.R R R R ",
"v Y Z Z Z I K K #.#.#.#.#.#.%.%.J %.%.%.%.#.#.N N N K K I I I I I I I I I I I I I d d t d d ( 9 ( ( : k 8 k 7 o h < [ R R R R R ",
"v v v v v I K K #.#.#.#.#.#.%.%.J %.%.%.#.#.#.#.#.N K K I K K K K K K K K K K K I E t d a 7 < d o ( ( ( j : ( y 6 7  .R - - - - ",
"v v v v v I K K N N #.#.#.#.%.%.J %.%.%.#.#.#.#.#.#.%.K I K K K K K K K K K K K I 7 7 l t n 6 c o ( 8 3 d d o [ 9 < Q R - - - - ",
"v v v v v I K K N N N N #.%.%.%.J %.%.%.#.#.#.#.#.#.%.%.J K K K N N N K K K K K I c 0 d d E c d d < h f 9 d 9 o *.i [ R - - - - ",
"v v v v v I K K N N N N N N K K J %.%.%.#.#.#.#.#.%.%.%.J K K N N N N N K K K K I c d d a d c d a ( 3 6 ( =.-.;.>.,.4 '.- - - - ",
"v v v v v I K K N N N N N N K K I K %.%.#.#.#.#.#.%.%.%.J %.K #.N N N N N K K K I 7 d d 7 9 n d ( ( ( ( ).;.!.~.{.].: ^.- - - - ",
"v v v v v I /.K K N N N N N K K I K K K #.#.#.#.#.%.%.%.J %.%.#.#.#.N N N K K K I o [ : : o o 7 3 2 7 6 (.~._.:.<.[.5 ^.- - - - ",
"}.}.}.}.}.I /.K K N N N N N N K I K K K N #.#.#.#.%.%.%.J %.%.#.#.#.#.#.N K K K I I I I I I I I J I I 5 [.|.1.2.3.4.s ^.- - - - ",
", , , , , J 5.K K K N N N N N K I K K K N N #.#.#.%.%.%.J %.%.%.#.#.#.#.#.#.%.%.J K K K K K K K %.%.J  .{.6.7.7.8.9.0.^.a.a.a.a.",
", , , , , J b.c.c.%.#.#.#.#.N K I K K K N N #.#.#.%.%.%.J %.%.%.#.#.#.#.#.#.%.%.J %.%.%.#.#.#.%.%.%.J  .d.e.f.g.:.h.E ^.a.a.a.a.",
", , , , , J b.b.c.c.#.#.#.#.#.%.J K K K #.#.#.#.#.#.%.%.J %.%.%.#.#.#.#.#.#.%.%.J %.%.#.#.#.#.#.%.%.J b {.i.8.j.k.l.m.^.a.a.a.a.",
", , , , , n.o.p.c.c.q.#.#.#.#.%.J /.%.%.#.#.#.#.#.#.%.%.J %.%.%.#.#.#.#.#.%.%.%.J %.%.#.#.#.#.#.#.%.n.b r.4.|.h.s.t.9 * a.a.a.a.",
", , , , , u.o.p.c.c.q.q.v.v.#.%.J w.%.%.#.#.#.#.#.#.%.%.J %.%.%.#.#.#.#.#.%.%.%.J %.%.#.#.v.v.v.v.%.n.` *.x.x.].*.d A * a.a.a.a.",
", , , , , u.o.p.c.c.c.q.v.v.%.%.J w.%.%.#.#.#.#.#.#.%.%.J %.%.%.#.#.#.#.#.%.%.%.n.%.%.v.v.v.v.v.v.%.n.A n 5 8 o } M ` * a.a.a.a.",
", , , , , n.o.p.p.c.c.c.c.%.%.%.J w.w.%.#.#.#.#.#.#.%.%.J %.%.%.#.#.#.#.#.%.%.%.n.%.%.%.v.v.v.v.v.%.n.n.n.n.n.n.n.n.y.* a.a.a.a.",
", , , , , u.o.b.p.c.c.c.c.c.%.%.J w.w.%.#.#.#.#.#.#.K K J %.%.%.#.#.#.#.#.#.%.%.J %.%.%.v.v.v.v.v.%.n.%.%.%.%.%.%.%.%.* a.a.a.a.",
", , , , , J z.A.b.c.c.c.c.c.c.c.B.w.w.%.#.#.#.#.#.#.K K I /.K K #.#.#.#.#.#.%.%.J %.%.%.#.#.#.#.#.%.J %.%.%.#.#.#.%.%.* a.a.a.a.",
"}.}.}.}.}.C.z.A.b.c.c.c.c.c.c.c.B.z.w.w.%.#.#.#.#.#.K K I /.K K N N #.#.#.#.%.%.J %.%.%.#.#.#.#.#.%.J %.%.#.#.#.#.#.%.* D.D.D.D.",
"; ; ; ; ; C.z.E.b.b.c.c.c.c.c.c.B.o.A.b.%.#.#.#.#.#.%.K J /./.K K N N N N #.#.%.J %.%.%.#.#.#.#.#.%.J %.%.#.#.#.#.#.%.* = = = = ",
"; ; ; ; ; C.z.E.E.b.c.c.c.c.c.c.B.o.A.b.c.q.q.q.q.#.#.%.J /./.K K N N N N N N K J %.%.%.#.#.#.#.#.#.J %.%.#.#.#.#.#.%.* = = = = ",
"; ; ; ; ; C.z.z.E.b.c.c.c.c.c.c.B.o.A.p.c.q.q.q.q.q.q.%.J /./.K K N N N N N N K I /.K K #.#.#.#.#.#.J %.%.#.#.#.#.#.%.F.= = = = ",
"; ; ; ; ; C.z.z.E.b.c.c.c.c.c.c.B.o.G.p.c.H.H.H.q.q.q.c.J w./.%.K K N N N N K K I /.K K #.#.#.#.#.#.J %.%.#.#.#.#.#.%.; = = = = ",
"; ; ; ; ; C.z.z.E.b.b.c.c.c.c.c.B.o.A.p.c.c.H.H.H.H.c.c.B.b.w.%.%.K K K K K K K I /.K K K N N #.#.#.J /.%.#.#.#.#.#.%.; = = = = ",
"; ; ; ; ; I.z.z.E.E.b.c.c.c.c.c.B.o.A.p.p.c.c.c.c.c.c.c.B.b.b.b.c.J.K K K K K K I /./.K K N N N N N J /.%.%.#.#.#.%.%.; = = = = ",
"; ; ; ; ; I.z.z.z.E.b.b.c.c.c.c.B.o.A.G.p.c.c.c.c.c.c.c.B.o.b.b.c.c.J.J.K K K K I /./.K K K N N N K I /.K %.%.%.%.%.%.; = = = = ",
"; ; ; ; ; I.z.z.z.E.E.b.J.c.c.c.B.o.o.A.p.p.c.c.c.c.c.c.B.o.A.b.c.c.c.J.J.J.J.J.K.b.b.b.J.J.J.K K K I /./.K K %.%.%.L.; = = = = ",
"; ; ; ; ; I.z.z.z.z.E.E.b.J.c.c.B.z.o.A.A.p.p.c.c.c.c.c.B.o.A.b.b.c.c.J.J.J.J.J.K.M.M.b.J.J.J.J.J.J.K.b.b.b.J.J.J.J.N.; = = = = ",
"X X X X X I.z.z.z.z.z.E.b.b.b.b.B.z.z.o.A.A.p.p.p.p.p.p.B.o.A.A.b.b.b.b.b.b.b.b.K.z.M.M.b.b.b.b.b.b.K.z.b.b.b.b.b.b.O.; = = = = ",
"P.P.P.P.P.I.Q.z.z.z.z.M.E.E.b.b.B.z.z.z.z.A.A.p.p.p.p.p.B.o.o.A.A.A.A.b.b.b.b.b.K.z.z.M.M.b.b.b.b.b.K.z.z.b.b.b.b.b.R.; = = = = ",
"P.P.P.P.P.I.S.T.T.T.T.U.U.V.V.W.X.U.U.Y.Y.Y.Z.Z.Z.`.`.`. +Y.Y.Y.Y.Y.Z.Z.5.5.5.W..+U.U.U.V.V.W.W.++++.+T.T.T.V.V.V.W.++; = = = = ",
"P.P.P.P.P.I.I I I I I I I I I I I I J J J J J J J n.n.n.n.n.n.n.n.n.J J J J J J I I I I I I I I I I I I I I I I I I @+#+= = = = ",
"P.P.P.P.P.P.P.P.P.Z & & & a.$+$+$+$+$+$+$ $ $ $ $ W %+%+%+%+F.F.F.F.F.F.U U U U U U U U U U F.& & & & & & @ + + + + + + + + + + ",
"P.P.P.P.P.P.P.P.P.Z & & & a.$+$+$+$+$+$+$ $ $ $ $ W %+%+%+%+F.F.F.F.F.F.U U U U U U U U U U F.& & & & & & @ + + + + + + + + + + ",
"P.P.P.P.P.P.P.P.P.Z & & & a.$+$+$+$+$+$+$ $ $ $ $ W %+%+%+%+F.F.F.F.F.F.U U U U U U U U U U F.& & & & & & @ + + + + + + + + + + ",
"P.P.P.P.P.P.P.P.P.Z a.a.a.- ~ ~ ~ ~ ~ ~ $ $ $ $ $ W %+%+%+%+F.F.F.F.F.F.U U U U U U U U U U F.& & & &+&+&+&+$ $ $ $ $ $ + + + + "};
