/* XPM */
static char * wall_xpm[] = {
"64 64 184 2",
"  	c #2F256F",
". 	c #272360",
"+ 	c #5C32C6",
"@ 	c #5B32C5",
"# 	c #37277E",
"$ 	c #26235F",
"% 	c #282363",
"& 	c #542FB7",
"* 	c #5D32C7",
"= 	c #5C32C7",
"- 	c #36267C",
"; 	c #24235B",
"> 	c #25235C",
", 	c #27235F",
"' 	c #26235E",
") 	c #5B32C6",
"! 	c #4E2DAA",
"~ 	c #492CA2",
"{ 	c #4A2CA2",
"] 	c #532EB6",
"^ 	c #552EBB",
"/ 	c #552EBA",
"( 	c #542EBA",
"_ 	c #482BA1",
": 	c #442A99",
"< 	c #442B99",
"[ 	c #272361",
"} 	c #372581",
"| 	c #3A2688",
"1 	c #3A2689",
"2 	c #4F2DB1",
"3 	c #5A31C4",
"4 	c #5B32C7",
"5 	c #35267C",
"6 	c #44289E",
"7 	c #4A29AA",
"8 	c #4A29A9",
"9 	c #5830C2",
"0 	c #5C32C8",
"a 	c #282362",
"b 	c #45289F",
"c 	c #4B29AB",
"d 	c #522DB7",
"e 	c #532EB9",
"f 	c #332578",
"g 	c #25235D",
"h 	c #5830C1",
"i 	c #5A32C5",
"j 	c #36277E",
"k 	c #45289E",
"l 	c #4929A9",
"m 	c #3D2690",
"n 	c #4728A4",
"o 	c #4A29AB",
"p 	c #272362",
"q 	c #33267A",
"r 	c #25235F",
"s 	c #262360",
"t 	c #512CB5",
"u 	c #422898",
"v 	c #3C268E",
"w 	c #3D268E",
"x 	c #3D268F",
"y 	c #4828A5",
"z 	c #302474",
"A 	c #35267D",
"B 	c #24235D",
"C 	c #25235E",
"D 	c #522DB6",
"E 	c #332579",
"F 	c #5831C2",
"G 	c #24235C",
"H 	c #402894",
"I 	c #402795",
"J 	c #2C246C",
"K 	c #262361",
"L 	c #392687",
"M 	c #392688",
"N 	c #2F2473",
"O 	c #23225A",
"P 	c #23235A",
"Q 	c #23235B",
"R 	c #442A98",
"S 	c #2E256E",
"T 	c #3F298F",
"U 	c #36277D",
"V 	c #5430B7",
"W 	c #5B32C4",
"X 	c #35267B",
"Y 	c #542FB6",
"Z 	c #542EB9",
"` 	c #482BA0",
" .	c #442B98",
"..	c #362581",
"+.	c #5830C0",
"@.	c #5A32C4",
"#.	c #5730C0",
"$.	c #36267D",
"%.	c #572FC0",
"&.	c #5A31C5",
"*.	c #5931C4",
"=.	c #502CB4",
"-.	c #4C2AAD",
";.	c #5A31C6",
">.	c #4E2BB0",
",.	c #4A28A9",
"'.	c #44279E",
").	c #4E2AB0",
"!.	c #44279D",
"~.	c #512CB6",
"{.	c #532DB9",
"].	c #4C29AC",
"^.	c #4A28A8",
"/.	c #25225E",
"(.	c #4928A8",
"_.	c #4928AA",
":.	c #4A28AA",
"<.	c #4928A9",
"[.	c #26225F",
"}.	c #262261",
"|.	c #43279D",
"1.	c #502BB4",
"2.	c #512CB7",
"3.	c #412797",
"4.	c #3C258D",
"5.	c #3C258E",
"6.	c #4727A4",
"7.	c #24225E",
"8.	c #25225F",
"9.	c #4B29AC",
"0.	c #34257C",
"a.	c #23225C",
"b.	c #24225D",
"c.	c #4D2AAF",
"d.	c #522DB8",
"e.	c #3F2793",
"f.	c #382587",
"g.	c #392587",
"h.	c #392588",
"i.	c #4627A3",
"j.	c #5730C1",
"k.	c #5A31C7",
"l.	c #3F2694",
"m.	c #472AA3",
"n.	c #472BA1",
"o.	c #472BA0",
"p.	c #2E2471",
"q.	c #252260",
"r.	c #382586",
"s.	c #2E2372",
"t.	c #2E2371",
"u.	c #23225B",
"v.	c #2F2373",
"w.	c #3B258D",
"x.	c #2B236B",
"y.	c #222159",
"z.	c #22225A",
"A.	c #222259",
"B.	c #432A98",
"C.	c #422997",
"D.	c #2D246E",
"E.	c #262260",
"F.	c #3E288F",
"G.	c #5931C5",
"H.	c #34257B",
"I.	c #22215A",
"J.	c #522FB7",
"K.	c #5A32C7",
"L.	c #462A9F",
"M.	c #432998",
"N.	c #352480",
"O.	c #382588",
"P.	c #4D2CB0",
"Q.	c #522DB9",
"R.	c #4B2CA8",
"S.	c #502DB4",
"T.	c #4828A8",
"U.	c #4828A9",
"V.	c #562FC0",
"W.	c #43279E",
"X.	c #562FBF",
"Y.	c #5831C3",
"Z.	c #34257A",
"`.	c #42279D",
"                                                                                                                                ",
"                                                                                                                                ",
"                                                                                                                                ",
"                                                                                                                                ",
"                                                                                                                                ",
"                                                                                                                                ",
"                                                                                                                                ",
"                                                                                                                                ",
"                                                                                                                                ",
"                                                                                                                                ",
"                                                                                                                                ",
"                                                                                                                                ",
"                                                                                                                                ",
"                                                                                                                                ",
". . . . . . . . . . . . . . . . . . . . . . . . . . . . . . . . . . . . . . . . . . . . . . . . . . . . . . . . . . . . . . . . ",
"+ + + + + + + + + + + + + + + + @ # $ . . . . . . . . . % & + + + + + + + + + + + + + + + + + * * * = + + + + + + + + + + + + + ",
"= = = = = = = = = = = = = = = = @ - ; > > , . . . ' ' ' . & = = = = = = = = = = = = = = + + ) ! ~ { ] ^ / / / / / / / / / / / / ",
"( ( ( ( ( ( ( ( ( ( ( ( ( ( ( ( ( _ : < :   , . [ } | | 1 2 ( ( ( ( ( ( ( ( ( ( ( ( ( ( 3 4 @ 5 ; ' 6 7 7 7 7 7 7 7 7 7 7 7 7 7 ",
"8 8 8 8 8 8 8 8 8 8 8 8 8 8 8 8 7 9 0 = ) # $ . a b c c c 7 8 8 8 8 8 8 8 8 8 8 8 8 8 7 d ( e f g , 6 7 7 7 7 7 7 7 7 7 7 7 7 7 ",
"7 7 7 7 7 7 7 7 7 7 7 7 7 7 7 7 7 h ) ) i j $ . a k 7 7 7 7 7 7 7 7 7 7 7 7 7 7 7 7 7 7 8 8 l m | 1 n 7 7 7 7 7 7 7 7 7 7 7 7 7 ",
"7 7 7 7 7 7 7 7 7 7 7 7 7 7 7 7 7 h ) ) i j $ . a k 7 7 7 7 7 7 7 7 7 7 7 7 7 7 7 7 7 7 7 7 7 o c c 7 7 7 7 7 7 7 7 7 7 7 7 7 7 ",
"7 7 7 7 7 7 7 7 7 7 7 7 7 7 7 7 7 h ) ) i j $ . a k 7 7 7 7 7 7 7 7 7 7 7 7 7 7 7 7 7 7 7 7 7 7 7 7 7 7 7 7 7 7 7 7 7 7 7 7 7 7 ",
"7 7 7 7 7 7 7 7 7 7 7 7 7 7 7 7 7 h 4 4 @ j $ . p 6 7 7 7 7 7 7 7 7 7 7 7 7 7 7 7 7 7 7 7 7 7 8 8 8 8 o c c c 7 7 7 7 7 7 7 7 7 ",
"7 7 7 7 7 7 7 7 7 7 7 7 7 7 7 7 7 d ( ( e q r s p 6 7 7 7 7 7 7 7 7 7 7 7 7 7 7 7 7 7 7 7 7 7 t d d d u v w x y 7 7 7 7 7 7 7 7 ",
"7 7 7 7 7 7 7 7 7 7 7 7 7 7 7 7 7 8 8 8 l z $ s p 6 7 7 7 7 7 7 7 7 7 7 7 7 7 7 7 7 7 7 7 7 7 h 4 4 @ A B C $ 6 7 7 7 7 7 7 7 7 ",
"7 7 7 7 8 8 8 o c 7 7 7 7 7 7 7 7 8 8 8 l z $ s p 6 7 7 7 7 7 7 7 7 7 7 7 7 7 7 7 7 7 7 7 7 7 h ) ) i j r s p 6 7 7 7 7 7 7 7 7 ",
"7 7 7 7 t d d u x y 7 7 7 7 7 7 7 t d d D E $ s p 6 7 7 7 7 7 7 7 7 7 7 7 7 7 7 7 7 7 7 7 7 7 h ) ) i j r s p 6 7 7 7 7 7 7 7 7 ",
"7 7 7 7 F = ) 5 G 6 7 7 7 7 7 7 7 F = = ) j r s p 6 7 7 7 7 7 7 7 7 7 7 7 7 7 7 7 7 7 7 7 7 7 h ) ) i j r s p 6 7 7 7 7 7 7 7 7 ",
"7 7 7 7 d ( e H | n 7 7 7 7 7 7 7 d ( ( e q $ s p 6 7 7 7 7 7 7 7 7 7 7 7 7 7 7 7 7 7 7 7 7 7 h ) ) i j r s p 6 7 7 7 7 7 7 7 7 ",
"7 7 7 7 8 8 8 o c 7 7 7 7 7 7 7 7 8 8 8 l z $ s p 6 7 7 7 7 7 7 7 7 7 7 7 7 7 7 7 7 7 7 7 7 7 h ) ) i j r s p 6 7 7 7 7 7 7 7 7 ",
"7 7 7 7 7 7 7 7 7 7 7 7 7 7 7 7 7 o c c 7 z $ s p b c c c 7 7 7 7 o c c c 7 7 7 7 7 7 7 7 7 7 h 4 4 @ A B C $ 6 7 7 7 7 7 7 7 7 ",
"7 7 7 7 7 7 7 7 7 7 7 7 7 7 7 7 7 I w w v J s s K L x w x y 7 7 7 I w w x y 7 7 7 7 7 7 7 7 7 d ( ( e H M | 1 n 7 7 7 7 7 7 7 7 ",
"7 7 7 7 7 7 7 7 7 7 7 7 7 7 7 7 8 N B C C s s s s C C C $ 6 7 7 8 N B C $ 6 7 7 7 7 7 7 7 7 7 8 8 8 8 o c c c 7 7 7 7 7 7 7 7 7 ",
"c c c c c c c c c c c c c c c c 7 z $ s s s s s s s s s p b c c 7 z $ s p b c c c c c c c c c c c c c c c c c c c c c c c c c c ",
"w w w w w w w w w w w w w w w w v J s s s s s s s s s s K L x w v J s s K L x w w w w w w w w w w w w w w w w w w w w w w w w w ",
"O O O O O O O O O O O O O O O O O G G G G G G G G G G G G P O O O G G G G P O P B C C C C C C C C C C C Q O O O O O O O O O O O ",
"< < < < < < < < < < < < < < < < < < < < < < < < < < < < < < < < < < < < < < < R S $ s s s s s s s s s [ T < < < < < < < < < < < ",
"+ + + + + + + + + + + + + + + + + + + + + + + + + + + + + + + + + + + + + + + @ U C $ $ $ $ $ $ $ $ $ p V = + + + + + + + + + + ",
"@ @ @ @ @ @ @ @ @ @ @ @ @ @ @ @ @ @ @ @ @ @ @ @ @ @ @ @ @ @ @ @ @ @ @ @ @ @ @ W X P ; ; ' $ $ $ g g g $ Y + @ @ @ @ @ @ @ @ @ @ ",
"Z Z Z Z Z Z Z Z Z Z Z Z Z Z Z Z Z Z Z Z Z Z Z Z Z Z Z Z Z Z Z Z Z Z Z Z Z Z Z Z ` R  .R S ' $ s ..| | 1 2 ( Z Z Z Z Z Z Z Z Z Z ",
"8 8 8 8 8 8 8 8 8 8 8 8 8 8 8 8 8 8 8 8 8 8 8 8 8 8 8 8 8 8 8 8 8 8 8 8 8 8 8 7 h = + @ U C $ [ b c c c 7 8 8 8 8 8 8 8 8 8 8 8 ",
"7 7 7 7 7 7 7 7 7 7 7 7 7 7 7 7 7 7 7 7 7 7 7 7 7 7 7 7 7 7 7 7 7 7 7 7 7 7 7 7 +.@ @ @.U C $ [ 6 7 7 7 7 7 7 7 7 7 7 7 7 7 7 7 ",
"7 7 7 7 7 7 7 7 7 7 7 7 7 7 7 7 7 7 7 7 7 7 7 7 7 7 7 7 7 7 7 7 7 7 7 7 7 7 7 7 #.@ @ 3 $.C $ [ 6 7 7 7 7 7 7 7 7 7 8 8 7 7 7 7 ",
"7 7 7 7 7 7 7 7 7 7 7 7 7 7 7 7 7 7 7 7 7 7 7 7 7 7 7 7 7 7 7 7 7 7 7 7 7 7 7 7 %.&.&.*.A C $ [ 6 7 7 7 7 7 7 7 7 =.d d -.7 7 7 ",
"7 7 7 7 7 7 7 7 7 7 7 7 7 7 7 7 7 7 7 7 7 7 7 7 7 7 7 7 7 7 7 7 7 7 7 7 7 7 7 7 %.&.&.*.A C $ [ 6 7 7 7 7 7 7 7 7 #.;.&.>.7 7 7 ",
"7 7 7 7 7 7 7 7 7 7 ,.,.,.,.,.,.,.,.,.,.,.,.,.,.,.,.,.,.,.,.,.,.,.,.,.,.,.,.,.,.%.&.&.*.A C $ [ '.7 7 7 7 7 7 7 7 #.;.&.).,.7 7 ",
",.,.,.,.,.,.,.,.,.,.,.,.,.,.,.,.,.,.,.,.,.,.,.,.,.,.,.,.,.,.,.,.,.,.,.,.,.,.,.,.%.&.&.*.A C $ [ !.,.,.,.,.,.,.,.,.~.{.{.].,.,.,.",
",.,.,.,.,.,.,.,.,.,.,.,.,.,.,.,.,.,.,.,.,.,.,.,.,.,.,.,.,.,.,.,.,.,.,.,.,.,.,.,.%.&.&.*.A C $ [ !.,.,.,.,.,.,.,.,.^.^.^.,.,.,.,.",
",.,.,.,.,.,.,.,.,.,.,.,.,.,.,.,.,.,.,.,.,.,.,.,.,.,.,.,.,.,.,.,.,.,.,.,.,.,.,.,.%.&.&.*.A /.$ [ !.,.,.,.,.,.,.,.,.,.,.,.,.,.,.,.",
",.,.,.,.,.,.(.(.(._.:.:.:.:.:.:.:.<.<.<.<.<.<.<.<.<.<.<.<.<.<.<.<.<.<.<.<.<.<.<.%.&.&.*.A /.[.}.|.,.,.,.(.(.(.<.,.,.,.,.,.,.,.,.",
"<.<.<.<.<.<.1.2.~.3.4.4.4.4.4.4.5.6.<.<.<.<.<.<.<.<.<.<.<.<.<.<.<.<.<.<.<.<.<.<.%.&.&.*.A 7.8.}.|.<.<.<.1.2.~.9.<.<.<.<.<.<.<.<.",
"<.<.<.<.<.<.%.;.3 0.a.b.b.b.b.b./.|.<.<.<.<.<.<.<.<.<.<.<.<.<.<.<.<.<.<.<.<.<.<.%.&.&.*.A 7.8.}.|.<.<.<.%.;.&.c.<.<.<.<.<.<.<.<.",
"<.<.<.<.<.<.%.;.3 0.a.b.b.b.b.b./.|.<.<.<.<.<.<.<.<.<.<.<.<.<.<.<.<.<.<.<.<.<.<.%.&.&.*.A 7.8.}.|.<.<.<.%.;.&.c.<.<.<.<.<.<.<.<.",
"<.<.<.<.<.<.~.{.d.e.f.g.g.g.g.g.h.i.<.<.<.<.<.<.<.<.<.<.<.<.<.<.<.<.<.<.<.<.<.<.%.&.&.*.A 7.8.}.|.<.<.<.~.{.{.9.<.<.<.<.<.<.<.<.",
"<.<.<.<.<.<.(.(.(._.:.:.:.:.:.:.:.<.<.<.<.<.<.<._.:.:.:.:.:.:.:.:.<.<.<.<.<.<.<.j.k.;.&.A 7.8.}.'.:.:.:.<.(.(.<.<.<.<.<.<.<.<.<.",
"<.<.<.<.<.<.<.<.<.<.<.<.<.<.<.<.<.<.<.<.<.<.<.<.l.4.4.4.4.4.4.4.5.6.<.<.<.<.<.<.m.n.n.o.p./.8.q.r.5.4.5.6.<.<.<.<.<.<.<.<.<.<.<.",
"<.<.<.<.<.<.<.<.<.<.<.<.<.<.<.<.<.<.<.<.<.<.<.(.s.a.b.b.b.b.b.b./.|.<.<.<.<.<.(.t.u.u.u./.8.8.8.b.b.b./.|.<.<.<.<.<.<.<.<.<.<.<.",
":.:.:.:.:.:.:.:.:.:.:.:.:.:.:.:.:.:.:.:.:.:.:.<.v./.8.8.8.8.8.8.}.'.:.:.:.:.:.<.v./.8.8.8.8.8.8.8.8.8.}.'.:.:.:.:.:.:.:.:.:.:.:.",
"4.4.4.4.4.4.4.4.4.4.4.4.4.4.4.4.4.4.4.4.4.4.4.w.x.8.8.8.8.8.8.8.q.r.5.4.4.4.4.w.x.8.8.8.8.8.8.8.8.8.8.q.r.5.4.4.4.4.4.4.4.4.4.4.",
"y.y.y.y.y.y.a.b.b.b.b.b.b.b.b.b.b.b.b.b.z.y.y.y.u.u.u.u.u.u.u.u.u.A.y.y.y.y.y.y.u.u.u.u.u.u.u.u.u.u.u.u.A.y.y.y.y.y.y.y.y.y.y.y.",
"B.B.B.B.B.C.D.8.8.8.8.8.8.8.8.8.8.8.8.E.F.B.B.B.B.B.B.B.B.B.B.B.B.B.B.B.B.B.B.B.B.B.B.B.B.B.B.B.B.B.B.B.B.B.B.B.B.B.B.B.B.B.B.B.",
";.;.;.;.;.G.H.I.u.u.u./.8.8.8.b.b.b.b.8.J.;.;.;.;.;.;.;.;.;.;.;.;.;.;.&.&.k.K.K.;.;.;.;.;.;.;.;.;.;.;.;.;.;.;.;.;.;.;.;.;.;.;.;.",
"d.d.d.d.d.d.L.M.B.B.C.D.8.8.q.N.f.f.f.O.P.Q.d.d.d.d.d.d.d.d.d.d.d.Q.9 *.*.R.o.n.S.Q.d.d.d.d.d.d.d.d.d.d.d.d.d.d.d.d.d.d.d.d.d.d.",
"T.T.T.T.T.U.V.;.&.&.*.A 7.8.}.W._._._._.U.T.T.T.T.T.T.T.T.T.T.T.T.U.X.*.Y.Z.z.b.`.U.T.T.T.T.T.T.T.T.T.T.T.T.T.T.T.T.T.T.T.T.T.T."};
